<mxfile host="app.diagrams.net" modified="2022-08-15T07:56:53.272Z" agent="5.0 (Windows NT 10.0; Win64; x64) AppleWebKit/537.36 (KHTML, like Gecko) Chrome/103.0.0.0 Safari/537.36" etag="UB6KNcTtLYasKIbmnGxx" version="20.2.3" type="github">
  <diagram id="Jn24E1RUyDSyy-6pW9ys" name="第 1 页">
    <mxGraphModel dx="1185" dy="635" grid="0" gridSize="10" guides="1" tooltips="1" connect="1" arrows="1" fold="1" page="1" pageScale="1" pageWidth="827" pageHeight="1169" math="0" shadow="0">
      <root>
        <mxCell id="0" />
        <mxCell id="1" parent="0" />
        <mxCell id="cmWsQPbYwqsQAWTUAuRW-1" value="&lt;span style=&quot;font-size: 15px;&quot;&gt;&lt;font color=&quot;#ff6666&quot;&gt;app.views[name=v0].children[name=c0]&lt;/font&gt;.elements[0].body[1].properties&lt;/span&gt;" style="text;html=1;strokeColor=none;fillColor=none;align=center;verticalAlign=middle;whiteSpace=wrap;rounded=0;fontSize=15;" vertex="1" parent="1">
          <mxGeometry x="134" y="138" width="598" height="37" as="geometry" />
        </mxCell>
        <mxCell id="cmWsQPbYwqsQAWTUAuRW-2" value="" style="shape=curlyBracket;whiteSpace=wrap;html=1;rounded=1;flipH=1;fontSize=15;direction=south;strokeColor=#849CB3;" vertex="1" parent="1">
          <mxGeometry x="203" y="125" width="255" height="20" as="geometry" />
        </mxCell>
        <mxCell id="cmWsQPbYwqsQAWTUAuRW-3" value="" style="shape=curlyBracket;whiteSpace=wrap;html=1;rounded=1;flipH=1;fontSize=15;direction=south;strokeColor=#849CB3;" vertex="1" parent="1">
          <mxGeometry x="467" y="127" width="199" height="18" as="geometry" />
        </mxCell>
        <mxCell id="cmWsQPbYwqsQAWTUAuRW-4" value="&lt;font color=&quot;#000000&quot; style=&quot;font-weight: normal; font-size: 16px;&quot;&gt;OuterPath&lt;/font&gt;" style="text;strokeColor=none;fillColor=none;html=1;fontSize=24;fontStyle=1;verticalAlign=middle;align=center;fontColor=#FF6666;" vertex="1" parent="1">
          <mxGeometry x="286" y="98" width="100" height="27" as="geometry" />
        </mxCell>
        <mxCell id="cmWsQPbYwqsQAWTUAuRW-5" value="&lt;font color=&quot;#000000&quot; style=&quot;font-weight: normal; font-size: 16px;&quot;&gt;InnerPath&lt;/font&gt;" style="text;strokeColor=none;fillColor=none;html=1;fontSize=24;fontStyle=1;verticalAlign=middle;align=center;fontColor=#FF6666;" vertex="1" parent="1">
          <mxGeometry x="518" y="100" width="100" height="27" as="geometry" />
        </mxCell>
        <mxCell id="cmWsQPbYwqsQAWTUAuRW-6" value="" style="shape=curlyBracket;whiteSpace=wrap;html=1;rounded=1;flipH=1;fontSize=15;direction=south;flipV=1;strokeColor=#849CB3;" vertex="1" parent="1">
          <mxGeometry x="265" y="169" width="64" height="17" as="geometry" />
        </mxCell>
        <mxCell id="cmWsQPbYwqsQAWTUAuRW-7" value="&lt;span style=&quot;font-weight: normal;&quot;&gt;&lt;font style=&quot;font-size: 15px;&quot;&gt;按kv索引&lt;/font&gt;&lt;/span&gt;" style="text;strokeColor=none;fillColor=none;html=1;fontSize=24;fontStyle=1;verticalAlign=middle;align=center;fontColor=#000000;" vertex="1" parent="1">
          <mxGeometry x="255.5" y="186" width="83" height="26" as="geometry" />
        </mxCell>
        <mxCell id="cmWsQPbYwqsQAWTUAuRW-8" value="" style="endArrow=classic;html=1;rounded=0;fontSize=15;fontColor=#000000;exitX=0.669;exitY=0.995;exitDx=0;exitDy=0;exitPerimeter=0;strokeColor=#849CB3;strokeWidth=1;" edge="1" parent="1">
          <mxGeometry width="50" height="50" relative="1" as="geometry">
            <mxPoint x="535.0619999999999" y="167.81499999999994" as="sourcePoint" />
            <mxPoint x="535" y="192" as="targetPoint" />
          </mxGeometry>
        </mxCell>
        <mxCell id="cmWsQPbYwqsQAWTUAuRW-10" value="&lt;span style=&quot;font-weight: normal;&quot;&gt;&lt;font style=&quot;font-size: 15px;&quot;&gt;按下标索引&lt;/font&gt;&lt;/span&gt;" style="text;strokeColor=none;fillColor=none;html=1;fontSize=24;fontStyle=1;verticalAlign=middle;align=center;fontColor=#000000;" vertex="1" parent="1">
          <mxGeometry x="492" y="186" width="83" height="26" as="geometry" />
        </mxCell>
        <mxCell id="cmWsQPbYwqsQAWTUAuRW-11" value="" style="endArrow=classic;html=1;rounded=0;fontSize=15;fontColor=#000000;exitX=0.669;exitY=0.995;exitDx=0;exitDy=0;exitPerimeter=0;strokeColor=#849CB3;strokeWidth=1;" edge="1" parent="1">
          <mxGeometry width="50" height="50" relative="1" as="geometry">
            <mxPoint x="633.0619999999999" y="167.81499999999994" as="sourcePoint" />
            <mxPoint x="633" y="192" as="targetPoint" />
          </mxGeometry>
        </mxCell>
        <mxCell id="cmWsQPbYwqsQAWTUAuRW-12" value="&lt;span style=&quot;font-weight: normal;&quot;&gt;&lt;font style=&quot;font-size: 15px;&quot;&gt;按末尾索引&lt;/font&gt;&lt;/span&gt;" style="text;strokeColor=none;fillColor=none;html=1;fontSize=24;fontStyle=1;verticalAlign=middle;align=center;fontColor=#000000;" vertex="1" parent="1">
          <mxGeometry x="590" y="186" width="83" height="26" as="geometry" />
        </mxCell>
        <mxCell id="cmWsQPbYwqsQAWTUAuRW-13" value="&lt;article style=&quot;font-size: 11px;&quot; data-content=&quot;[{&amp;quot;type&amp;quot;:&amp;quot;block&amp;quot;,&amp;quot;id&amp;quot;:&amp;quot;h4mW-1654827969496&amp;quot;,&amp;quot;name&amp;quot;:&amp;quot;heading&amp;quot;,&amp;quot;data&amp;quot;:{&amp;quot;level&amp;quot;:&amp;quot;h4&amp;quot;,&amp;quot;style&amp;quot;:{&amp;quot;textIndent&amp;quot;:0}},&amp;quot;nodes&amp;quot;:[{&amp;quot;type&amp;quot;:&amp;quot;text&amp;quot;,&amp;quot;id&amp;quot;:&amp;quot;9vuN-1654827969495&amp;quot;,&amp;quot;leaves&amp;quot;:[{&amp;quot;text&amp;quot;:&amp;quot;Create&amp;quot;,&amp;quot;marks&amp;quot;:[]},{&amp;quot;text&amp;quot;:&amp;quot;（针对数组，在指定索引后添加、不加索引则默认添加在末尾)&amp;quot;,&amp;quot;marks&amp;quot;:[{&amp;quot;type&amp;quot;:&amp;quot;fontSize&amp;quot;,&amp;quot;value&amp;quot;:16}]}]}]},{&amp;quot;type&amp;quot;:&amp;quot;block&amp;quot;,&amp;quot;id&amp;quot;:&amp;quot;uEbM-1654831806512&amp;quot;,&amp;quot;name&amp;quot;:&amp;quot;list-item&amp;quot;,&amp;quot;data&amp;quot;:{&amp;quot;listId&amp;quot;:&amp;quot;CoeC-1654831922191&amp;quot;,&amp;quot;listType&amp;quot;:&amp;quot;unordered&amp;quot;,&amp;quot;listLevel&amp;quot;:1,&amp;quot;style&amp;quot;:{}},&amp;quot;nodes&amp;quot;:[{&amp;quot;type&amp;quot;:&amp;quot;text&amp;quot;,&amp;quot;id&amp;quot;:&amp;quot;tRql-1654831806513&amp;quot;,&amp;quot;leaves&amp;quot;:[{&amp;quot;text&amp;quot;:&amp;quot;存在外部路径&amp;quot;,&amp;quot;marks&amp;quot;:[{&amp;quot;type&amp;quot;:&amp;quot;bold&amp;quot;}]}]}]},{&amp;quot;type&amp;quot;:&amp;quot;block&amp;quot;,&amp;quot;id&amp;quot;:&amp;quot;VHpc-1654852553771&amp;quot;,&amp;quot;name&amp;quot;:&amp;quot;list-item&amp;quot;,&amp;quot;data&amp;quot;:{&amp;quot;listId&amp;quot;:&amp;quot;CoeC-1654831922191&amp;quot;,&amp;quot;listType&amp;quot;:&amp;quot;unordered&amp;quot;,&amp;quot;listLevel&amp;quot;:2,&amp;quot;style&amp;quot;:{}},&amp;quot;nodes&amp;quot;:[{&amp;quot;type&amp;quot;:&amp;quot;text&amp;quot;,&amp;quot;id&amp;quot;:&amp;quot;LAkH-1654852553770&amp;quot;,&amp;quot;leaves&amp;quot;:[{&amp;quot;text&amp;quot;:&amp;quot;存在内部路径&amp;quot;,&amp;quot;marks&amp;quot;:[{&amp;quot;type&amp;quot;:&amp;quot;bold&amp;quot;}]}]}]},{&amp;quot;type&amp;quot;:&amp;quot;block&amp;quot;,&amp;quot;id&amp;quot;:&amp;quot;Yjvo-1654852340975&amp;quot;,&amp;quot;name&amp;quot;:&amp;quot;list-item&amp;quot;,&amp;quot;data&amp;quot;:{&amp;quot;listId&amp;quot;:&amp;quot;CoeC-1654831922191&amp;quot;,&amp;quot;listType&amp;quot;:&amp;quot;unordered&amp;quot;,&amp;quot;listLevel&amp;quot;:3,&amp;quot;style&amp;quot;:{}},&amp;quot;nodes&amp;quot;:[{&amp;quot;type&amp;quot;:&amp;quot;text&amp;quot;,&amp;quot;id&amp;quot;:&amp;quot;ckNp-1654852340974&amp;quot;,&amp;quot;leaves&amp;quot;:[{&amp;quot;text&amp;quot;:&amp;quot;\&amp;quot;path\&amp;quot;:&amp;nbsp;\&amp;quot;&amp;quot;,&amp;quot;marks&amp;quot;:[]},{&amp;quot;text&amp;quot;:&amp;quot;app.&amp;quot;,&amp;quot;marks&amp;quot;:[{&amp;quot;type&amp;quot;:&amp;quot;color&amp;quot;,&amp;quot;value&amp;quot;:&amp;quot;#000000&amp;quot;}]},{&amp;quot;text&amp;quot;:&amp;quot;views[2].children[3].children[4]&amp;quot;,&amp;quot;marks&amp;quot;:[{&amp;quot;type&amp;quot;:&amp;quot;color&amp;quot;,&amp;quot;value&amp;quot;:&amp;quot;#403ED6&amp;quot;}]},{&amp;quot;text&amp;quot;:&amp;quot;.elements[5].properties[6]\&amp;quot;&amp;nbsp;&amp;nbsp;&amp;nbsp;&amp;quot;,&amp;quot;marks&amp;quot;:[]}]}]},{&amp;quot;type&amp;quot;:&amp;quot;block&amp;quot;,&amp;quot;id&amp;quot;:&amp;quot;pjT1-1655970633241&amp;quot;,&amp;quot;name&amp;quot;:&amp;quot;list-item&amp;quot;,&amp;quot;data&amp;quot;:{&amp;quot;listId&amp;quot;:&amp;quot;CoeC-1654831922191&amp;quot;,&amp;quot;listType&amp;quot;:&amp;quot;unordered&amp;quot;,&amp;quot;listLevel&amp;quot;:3,&amp;quot;style&amp;quot;:{}},&amp;quot;nodes&amp;quot;:[{&amp;quot;type&amp;quot;:&amp;quot;text&amp;quot;,&amp;quot;id&amp;quot;:&amp;quot;FykS-1655970633239&amp;quot;,&amp;quot;leaves&amp;quot;:[{&amp;quot;text&amp;quot;:&amp;quot;\&amp;quot;path\&amp;quot;:&amp;nbsp;\&amp;quot;&amp;quot;,&amp;quot;marks&amp;quot;:[]},{&amp;quot;text&amp;quot;:&amp;quot;app.&amp;quot;,&amp;quot;marks&amp;quot;:[{&amp;quot;type&amp;quot;:&amp;quot;color&amp;quot;,&amp;quot;value&amp;quot;:&amp;quot;#000000&amp;quot;}]},{&amp;quot;text&amp;quot;:&amp;quot;views[2].children[3].children[4]&amp;quot;,&amp;quot;marks&amp;quot;:[{&amp;quot;type&amp;quot;:&amp;quot;color&amp;quot;,&amp;quot;value&amp;quot;:&amp;quot;#403ED6&amp;quot;}]},{&amp;quot;text&amp;quot;:&amp;quot;.children\&amp;quot;&amp;nbsp;&amp;nbsp;&amp;nbsp;&amp;quot;,&amp;quot;marks&amp;quot;:[]},{&amp;quot;text&amp;quot;:&amp;quot;（需要同步更新&amp;quot;,&amp;quot;marks&amp;quot;:[{&amp;quot;type&amp;quot;:&amp;quot;color&amp;quot;,&amp;quot;value&amp;quot;:&amp;quot;#F33232&amp;quot;},{&amp;quot;type&amp;quot;:&amp;quot;bold&amp;quot;}]},{&amp;quot;text&amp;quot;:&amp;quot;app结构）&amp;quot;,&amp;quot;marks&amp;quot;:[{&amp;quot;type&amp;quot;:&amp;quot;color&amp;quot;,&amp;quot;value&amp;quot;:&amp;quot;#FF0001&amp;quot;},{&amp;quot;type&amp;quot;:&amp;quot;bold&amp;quot;}]}]}]},{&amp;quot;type&amp;quot;:&amp;quot;block&amp;quot;,&amp;quot;id&amp;quot;:&amp;quot;vMn3-1654852566551&amp;quot;,&amp;quot;name&amp;quot;:&amp;quot;list-item&amp;quot;,&amp;quot;data&amp;quot;:{&amp;quot;listId&amp;quot;:&amp;quot;CoeC-1654831922191&amp;quot;,&amp;quot;listType&amp;quot;:&amp;quot;unordered&amp;quot;,&amp;quot;listLevel&amp;quot;:2,&amp;quot;style&amp;quot;:{}},&amp;quot;nodes&amp;quot;:[{&amp;quot;type&amp;quot;:&amp;quot;text&amp;quot;,&amp;quot;id&amp;quot;:&amp;quot;c8Jr-1654852566550&amp;quot;,&amp;quot;leaves&amp;quot;:[{&amp;quot;text&amp;quot;:&amp;quot;无内部路径&amp;quot;,&amp;quot;marks&amp;quot;:[{&amp;quot;type&amp;quot;:&amp;quot;bold&amp;quot;}]},{&amp;quot;text&amp;quot;:&amp;quot;（对子文档的&amp;quot;,&amp;quot;marks&amp;quot;:[]},{&amp;quot;text&amp;quot;:&amp;quot;logics数组和views数组create）&amp;quot;,&amp;quot;marks&amp;quot;:[{&amp;quot;type&amp;quot;:&amp;quot;bold&amp;quot;}]}]}]},{&amp;quot;type&amp;quot;:&amp;quot;block&amp;quot;,&amp;quot;id&amp;quot;:&amp;quot;9YuJ-1654831926306&amp;quot;,&amp;quot;name&amp;quot;:&amp;quot;list-item&amp;quot;,&amp;quot;data&amp;quot;:{&amp;quot;listId&amp;quot;:&amp;quot;CoeC-1654831922191&amp;quot;,&amp;quot;listType&amp;quot;:&amp;quot;unordered&amp;quot;,&amp;quot;listLevel&amp;quot;:3,&amp;quot;style&amp;quot;:{}},&amp;quot;nodes&amp;quot;:[{&amp;quot;type&amp;quot;:&amp;quot;text&amp;quot;,&amp;quot;id&amp;quot;:&amp;quot;rtAr-1654831926305&amp;quot;,&amp;quot;leaves&amp;quot;:[{&amp;quot;text&amp;quot;:&amp;quot;\&amp;quot;path\&amp;quot;:&amp;nbsp;&amp;quot;,&amp;quot;marks&amp;quot;:[]},{&amp;quot;text&amp;quot;:&amp;quot;\&amp;quot;app.&amp;quot;,&amp;quot;marks&amp;quot;:[{&amp;quot;type&amp;quot;:&amp;quot;color&amp;quot;,&amp;quot;value&amp;quot;:&amp;quot;#000000&amp;quot;}]},{&amp;quot;text&amp;quot;:&amp;quot;views[2].children[3].children[4]&amp;quot;,&amp;quot;marks&amp;quot;:[{&amp;quot;type&amp;quot;:&amp;quot;color&amp;quot;,&amp;quot;value&amp;quot;:&amp;quot;#403ED6&amp;quot;}]},{&amp;quot;text&amp;quot;:&amp;quot;\&amp;quot;&amp;nbsp;&amp;quot;,&amp;quot;marks&amp;quot;:[]},{&amp;quot;text&amp;quot;:&amp;quot;（需要同步更新&amp;quot;,&amp;quot;marks&amp;quot;:[{&amp;quot;type&amp;quot;:&amp;quot;color&amp;quot;,&amp;quot;value&amp;quot;:&amp;quot;#F33232&amp;quot;},{&amp;quot;type&amp;quot;:&amp;quot;bold&amp;quot;}]},{&amp;quot;text&amp;quot;:&amp;quot;app结构）&amp;quot;,&amp;quot;marks&amp;quot;:[{&amp;quot;type&amp;quot;:&amp;quot;color&amp;quot;,&amp;quot;value&amp;quot;:&amp;quot;#FF0001&amp;quot;},{&amp;quot;type&amp;quot;:&amp;quot;bold&amp;quot;}]}]}]},{&amp;quot;type&amp;quot;:&amp;quot;block&amp;quot;,&amp;quot;id&amp;quot;:&amp;quot;sKZz-1655974450891&amp;quot;,&amp;quot;name&amp;quot;:&amp;quot;list-item&amp;quot;,&amp;quot;data&amp;quot;:{&amp;quot;listId&amp;quot;:&amp;quot;CoeC-1654831922191&amp;quot;,&amp;quot;listType&amp;quot;:&amp;quot;unordered&amp;quot;,&amp;quot;listLevel&amp;quot;:3,&amp;quot;style&amp;quot;:{}},&amp;quot;nodes&amp;quot;:[{&amp;quot;type&amp;quot;:&amp;quot;text&amp;quot;,&amp;quot;id&amp;quot;:&amp;quot;5Uis-1655974450889&amp;quot;,&amp;quot;leaves&amp;quot;:[{&amp;quot;text&amp;quot;:&amp;quot;\&amp;quot;path\&amp;quot;:&amp;nbsp;&amp;quot;,&amp;quot;marks&amp;quot;:[]},{&amp;quot;text&amp;quot;:&amp;quot;\&amp;quot;app.&amp;quot;,&amp;quot;marks&amp;quot;:[{&amp;quot;type&amp;quot;:&amp;quot;color&amp;quot;,&amp;quot;value&amp;quot;:&amp;quot;#000000&amp;quot;}]},{&amp;quot;text&amp;quot;:&amp;quot;views[2]&amp;quot;,&amp;quot;marks&amp;quot;:[{&amp;quot;type&amp;quot;:&amp;quot;color&amp;quot;,&amp;quot;value&amp;quot;:&amp;quot;#403ED6&amp;quot;}]},{&amp;quot;text&amp;quot;:&amp;quot;\&amp;quot;&amp;quot;,&amp;quot;marks&amp;quot;:[]},{&amp;quot;text&amp;quot;:&amp;quot;（需要同步更新&amp;quot;,&amp;quot;marks&amp;quot;:[{&amp;quot;type&amp;quot;:&amp;quot;color&amp;quot;,&amp;quot;value&amp;quot;:&amp;quot;#F33232&amp;quot;},{&amp;quot;type&amp;quot;:&amp;quot;bold&amp;quot;}]},{&amp;quot;text&amp;quot;:&amp;quot;app结构）&amp;quot;,&amp;quot;marks&amp;quot;:[{&amp;quot;type&amp;quot;:&amp;quot;color&amp;quot;,&amp;quot;value&amp;quot;:&amp;quot;#FF0001&amp;quot;},{&amp;quot;type&amp;quot;:&amp;quot;bold&amp;quot;}]}]}]},{&amp;quot;type&amp;quot;:&amp;quot;block&amp;quot;,&amp;quot;id&amp;quot;:&amp;quot;ajCJ-1654852239640&amp;quot;,&amp;quot;name&amp;quot;:&amp;quot;list-item&amp;quot;,&amp;quot;data&amp;quot;:{&amp;quot;listId&amp;quot;:&amp;quot;CoeC-1654831922191&amp;quot;,&amp;quot;listType&amp;quot;:&amp;quot;unordered&amp;quot;,&amp;quot;listLevel&amp;quot;:1,&amp;quot;style&amp;quot;:{}},&amp;quot;nodes&amp;quot;:[{&amp;quot;type&amp;quot;:&amp;quot;text&amp;quot;,&amp;quot;id&amp;quot;:&amp;quot;jq3B-1654852239638&amp;quot;,&amp;quot;leaves&amp;quot;:[{&amp;quot;text&amp;quot;:&amp;quot;无外部路径&amp;quot;,&amp;quot;marks&amp;quot;:[{&amp;quot;type&amp;quot;:&amp;quot;bold&amp;quot;}]}]}]},{&amp;quot;type&amp;quot;:&amp;quot;block&amp;quot;,&amp;quot;id&amp;quot;:&amp;quot;iw5i-1654852249444&amp;quot;,&amp;quot;name&amp;quot;:&amp;quot;list-item&amp;quot;,&amp;quot;data&amp;quot;:{&amp;quot;listId&amp;quot;:&amp;quot;CoeC-1654831922191&amp;quot;,&amp;quot;listType&amp;quot;:&amp;quot;unordered&amp;quot;,&amp;quot;listLevel&amp;quot;:2,&amp;quot;style&amp;quot;:{}},&amp;quot;nodes&amp;quot;:[{&amp;quot;type&amp;quot;:&amp;quot;text&amp;quot;,&amp;quot;id&amp;quot;:&amp;quot;rSrA-1654852249443&amp;quot;,&amp;quot;leaves&amp;quot;:[{&amp;quot;text&amp;quot;:&amp;quot;\&amp;quot;path\&amp;quot;:&amp;nbsp;\&amp;quot;&amp;quot;,&amp;quot;marks&amp;quot;:[]},{&amp;quot;text&amp;quot;:&amp;quot;app&amp;quot;,&amp;quot;marks&amp;quot;:[{&amp;quot;type&amp;quot;:&amp;quot;color&amp;quot;,&amp;quot;value&amp;quot;:&amp;quot;#000000&amp;quot;}]},{&amp;quot;text&amp;quot;:&amp;quot;.processes[2].properties[6]\&amp;quot;&amp;quot;,&amp;quot;marks&amp;quot;:[]}]}]},{&amp;quot;type&amp;quot;:&amp;quot;block&amp;quot;,&amp;quot;id&amp;quot;:&amp;quot;QyKt-1655970703881&amp;quot;,&amp;quot;name&amp;quot;:&amp;quot;list-item&amp;quot;,&amp;quot;data&amp;quot;:{&amp;quot;listId&amp;quot;:&amp;quot;CoeC-1654831922191&amp;quot;,&amp;quot;listType&amp;quot;:&amp;quot;unordered&amp;quot;,&amp;quot;listLevel&amp;quot;:2,&amp;quot;style&amp;quot;:{}},&amp;quot;nodes&amp;quot;:[{&amp;quot;type&amp;quot;:&amp;quot;text&amp;quot;,&amp;quot;id&amp;quot;:&amp;quot;TGlC-1655970703879&amp;quot;,&amp;quot;leaves&amp;quot;:[{&amp;quot;text&amp;quot;:&amp;quot;\&amp;quot;path\&amp;quot;:&amp;nbsp;\&amp;quot;app.views\&amp;quot;&amp;nbsp;&amp;quot;,&amp;quot;marks&amp;quot;:[]}]}]},{&amp;quot;type&amp;quot;:&amp;quot;block&amp;quot;,&amp;quot;id&amp;quot;:&amp;quot;qV5n-1654830006968&amp;quot;,&amp;quot;name&amp;quot;:&amp;quot;paragraph&amp;quot;,&amp;quot;data&amp;quot;:{&amp;quot;style&amp;quot;:{}},&amp;quot;nodes&amp;quot;:[{&amp;quot;type&amp;quot;:&amp;quot;text&amp;quot;,&amp;quot;id&amp;quot;:&amp;quot;Qmv3-1654830006967&amp;quot;,&amp;quot;leaves&amp;quot;:[{&amp;quot;text&amp;quot;:&amp;quot;&amp;quot;,&amp;quot;marks&amp;quot;:[]}]}]},{&amp;quot;type&amp;quot;:&amp;quot;block&amp;quot;,&amp;quot;id&amp;quot;:&amp;quot;DyAT-1654830376068&amp;quot;,&amp;quot;name&amp;quot;:&amp;quot;heading&amp;quot;,&amp;quot;data&amp;quot;:{&amp;quot;level&amp;quot;:&amp;quot;h4&amp;quot;,&amp;quot;style&amp;quot;:{&amp;quot;textIndent&amp;quot;:0}},&amp;quot;nodes&amp;quot;:[{&amp;quot;type&amp;quot;:&amp;quot;text&amp;quot;,&amp;quot;id&amp;quot;:&amp;quot;jNmJ-1654830376067&amp;quot;,&amp;quot;leaves&amp;quot;:[{&amp;quot;text&amp;quot;:&amp;quot;Update&amp;quot;,&amp;quot;marks&amp;quot;:[]},{&amp;quot;text&amp;quot;:&amp;quot;（针对对象，根据k修改v）&amp;quot;,&amp;quot;marks&amp;quot;:[{&amp;quot;type&amp;quot;:&amp;quot;fontSize&amp;quot;,&amp;quot;value&amp;quot;:16}]}]}]},{&amp;quot;type&amp;quot;:&amp;quot;block&amp;quot;,&amp;quot;id&amp;quot;:&amp;quot;DmAq-1654831860884&amp;quot;,&amp;quot;name&amp;quot;:&amp;quot;list-item&amp;quot;,&amp;quot;data&amp;quot;:{&amp;quot;listId&amp;quot;:&amp;quot;SZ6Y-1654831858152&amp;quot;,&amp;quot;listType&amp;quot;:&amp;quot;unordered&amp;quot;,&amp;quot;listLevel&amp;quot;:1,&amp;quot;style&amp;quot;:{}},&amp;quot;nodes&amp;quot;:[{&amp;quot;type&amp;quot;:&amp;quot;text&amp;quot;,&amp;quot;id&amp;quot;:&amp;quot;HaqQ-1654831860882&amp;quot;,&amp;quot;leaves&amp;quot;:[{&amp;quot;text&amp;quot;:&amp;quot;存在外部路径&amp;quot;,&amp;quot;marks&amp;quot;:[{&amp;quot;type&amp;quot;:&amp;quot;bold&amp;quot;}]}]}]},{&amp;quot;type&amp;quot;:&amp;quot;block&amp;quot;,&amp;quot;id&amp;quot;:&amp;quot;gfTB-1654856538833&amp;quot;,&amp;quot;name&amp;quot;:&amp;quot;list-item&amp;quot;,&amp;quot;data&amp;quot;:{&amp;quot;listId&amp;quot;:&amp;quot;kI81-1654856538822&amp;quot;,&amp;quot;listType&amp;quot;:&amp;quot;unordered&amp;quot;,&amp;quot;listLevel&amp;quot;:2,&amp;quot;style&amp;quot;:{},&amp;quot;version&amp;quot;:1},&amp;quot;nodes&amp;quot;:[{&amp;quot;type&amp;quot;:&amp;quot;text&amp;quot;,&amp;quot;id&amp;quot;:&amp;quot;pXC1-1654856538834&amp;quot;,&amp;quot;leaves&amp;quot;:[{&amp;quot;text&amp;quot;:&amp;quot;存在内部路径&amp;quot;,&amp;quot;marks&amp;quot;:[{&amp;quot;type&amp;quot;:&amp;quot;bold&amp;quot;}]}]}]},{&amp;quot;type&amp;quot;:&amp;quot;block&amp;quot;,&amp;quot;id&amp;quot;:&amp;quot;EWcQ-1654856538835&amp;quot;,&amp;quot;name&amp;quot;:&amp;quot;list-item&amp;quot;,&amp;quot;data&amp;quot;:{&amp;quot;listId&amp;quot;:&amp;quot;kI81-1654856538822&amp;quot;,&amp;quot;listType&amp;quot;:&amp;quot;unordered&amp;quot;,&amp;quot;listLevel&amp;quot;:3,&amp;quot;style&amp;quot;:{},&amp;quot;version&amp;quot;:1},&amp;quot;nodes&amp;quot;:[{&amp;quot;type&amp;quot;:&amp;quot;text&amp;quot;,&amp;quot;id&amp;quot;:&amp;quot;j5o9-1654856538836&amp;quot;,&amp;quot;leaves&amp;quot;:[{&amp;quot;text&amp;quot;:&amp;quot;\&amp;quot;path\&amp;quot;:&amp;nbsp;\&amp;quot;app&amp;quot;,&amp;quot;marks&amp;quot;:[]},{&amp;quot;text&amp;quot;:&amp;quot;.views[2].children[3].children[4]&amp;quot;,&amp;quot;marks&amp;quot;:[{&amp;quot;type&amp;quot;:&amp;quot;color&amp;quot;,&amp;quot;value&amp;quot;:&amp;quot;#403ED6&amp;quot;}]},{&amp;quot;text&amp;quot;:&amp;quot;.elements[5].properties[6]\&amp;quot;&amp;nbsp;&amp;nbsp;&amp;nbsp;-&gt;&amp;nbsp;{type:\&amp;quot;xxx\&amp;quot;}&amp;quot;,&amp;quot;marks&amp;quot;:[]}]}]},{&amp;quot;type&amp;quot;:&amp;quot;block&amp;quot;,&amp;quot;id&amp;quot;:&amp;quot;Kp0D-1654856538838&amp;quot;,&amp;quot;name&amp;quot;:&amp;quot;list-item&amp;quot;,&amp;quot;data&amp;quot;:{&amp;quot;listId&amp;quot;:&amp;quot;kI81-1654856538822&amp;quot;,&amp;quot;listType&amp;quot;:&amp;quot;unordered&amp;quot;,&amp;quot;listLevel&amp;quot;:2,&amp;quot;style&amp;quot;:{},&amp;quot;version&amp;quot;:1},&amp;quot;nodes&amp;quot;:[{&amp;quot;type&amp;quot;:&amp;quot;text&amp;quot;,&amp;quot;id&amp;quot;:&amp;quot;SDcW-1654856538839&amp;quot;,&amp;quot;leaves&amp;quot;:[{&amp;quot;text&amp;quot;:&amp;quot;无内部路径&amp;quot;,&amp;quot;marks&amp;quot;:[{&amp;quot;type&amp;quot;:&amp;quot;bold&amp;quot;}]}]}]},{&amp;quot;type&amp;quot;:&amp;quot;block&amp;quot;,&amp;quot;id&amp;quot;:&amp;quot;39tJ-1654856736598&amp;quot;,&amp;quot;name&amp;quot;:&amp;quot;list-item&amp;quot;,&amp;quot;data&amp;quot;:{&amp;quot;listId&amp;quot;:&amp;quot;kI81-1654856538822&amp;quot;,&amp;quot;listType&amp;quot;:&amp;quot;unordered&amp;quot;,&amp;quot;listLevel&amp;quot;:3,&amp;quot;style&amp;quot;:{},&amp;quot;version&amp;quot;:1},&amp;quot;nodes&amp;quot;:[{&amp;quot;type&amp;quot;:&amp;quot;text&amp;quot;,&amp;quot;id&amp;quot;:&amp;quot;g7Zk-1654856736597&amp;quot;,&amp;quot;leaves&amp;quot;:[{&amp;quot;text&amp;quot;:&amp;quot;更新普通字段&amp;quot;,&amp;quot;marks&amp;quot;:[{&amp;quot;type&amp;quot;:&amp;quot;bold&amp;quot;}]}]}]},{&amp;quot;type&amp;quot;:&amp;quot;block&amp;quot;,&amp;quot;id&amp;quot;:&amp;quot;frn4-1654862693709&amp;quot;,&amp;quot;name&amp;quot;:&amp;quot;list-item&amp;quot;,&amp;quot;data&amp;quot;:{&amp;quot;listId&amp;quot;:&amp;quot;kI81-1654856538822&amp;quot;,&amp;quot;listType&amp;quot;:&amp;quot;unordered&amp;quot;,&amp;quot;listLevel&amp;quot;:4,&amp;quot;style&amp;quot;:{},&amp;quot;version&amp;quot;:1},&amp;quot;nodes&amp;quot;:[{&amp;quot;type&amp;quot;:&amp;quot;text&amp;quot;,&amp;quot;id&amp;quot;:&amp;quot;1t6i-1654862693707&amp;quot;,&amp;quot;leaves&amp;quot;:[{&amp;quot;text&amp;quot;:&amp;quot;\&amp;quot;path\&amp;quot;:&amp;nbsp;\&amp;quot;app.&amp;quot;,&amp;quot;marks&amp;quot;:[]},{&amp;quot;text&amp;quot;:&amp;quot;views[2].children[3].children[4]&amp;quot;,&amp;quot;marks&amp;quot;:[{&amp;quot;type&amp;quot;:&amp;quot;color&amp;quot;,&amp;quot;value&amp;quot;:&amp;quot;#403ED6&amp;quot;}]},{&amp;quot;text&amp;quot;:&amp;quot;\&amp;quot;&amp;nbsp;&amp;nbsp;-&gt;&amp;nbsp;{type:&amp;nbsp;\&amp;quot;xxx\&amp;quot;}&amp;quot;,&amp;quot;marks&amp;quot;:[]}]}]},{&amp;quot;type&amp;quot;:&amp;quot;block&amp;quot;,&amp;quot;id&amp;quot;:&amp;quot;G9GY-1654863769545&amp;quot;,&amp;quot;name&amp;quot;:&amp;quot;list-item&amp;quot;,&amp;quot;data&amp;quot;:{&amp;quot;listId&amp;quot;:&amp;quot;kI81-1654856538822&amp;quot;,&amp;quot;listType&amp;quot;:&amp;quot;unordered&amp;quot;,&amp;quot;listLevel&amp;quot;:3,&amp;quot;style&amp;quot;:{},&amp;quot;version&amp;quot;:1},&amp;quot;nodes&amp;quot;:[{&amp;quot;type&amp;quot;:&amp;quot;text&amp;quot;,&amp;quot;id&amp;quot;:&amp;quot;5f8s-1654863769543&amp;quot;,&amp;quot;leaves&amp;quot;:[{&amp;quot;text&amp;quot;:&amp;quot;更新name字段&amp;quot;,&amp;quot;marks&amp;quot;:[{&amp;quot;type&amp;quot;:&amp;quot;bold&amp;quot;}]},{&amp;quot;text&amp;quot;:&amp;quot;（需要同步更新app结构中对应的name，name保留用于查询）&amp;quot;,&amp;quot;marks&amp;quot;:[{&amp;quot;type&amp;quot;:&amp;quot;bold&amp;quot;},{&amp;quot;type&amp;quot;:&amp;quot;color&amp;quot;,&amp;quot;value&amp;quot;:&amp;quot;#FF0001&amp;quot;}]}]}]},{&amp;quot;type&amp;quot;:&amp;quot;block&amp;quot;,&amp;quot;id&amp;quot;:&amp;quot;YPfZ-1654863793504&amp;quot;,&amp;quot;name&amp;quot;:&amp;quot;list-item&amp;quot;,&amp;quot;data&amp;quot;:{&amp;quot;listId&amp;quot;:&amp;quot;kI81-1654856538822&amp;quot;,&amp;quot;listType&amp;quot;:&amp;quot;unordered&amp;quot;,&amp;quot;listLevel&amp;quot;:4,&amp;quot;style&amp;quot;:{},&amp;quot;version&amp;quot;:1},&amp;quot;nodes&amp;quot;:[{&amp;quot;type&amp;quot;:&amp;quot;text&amp;quot;,&amp;quot;id&amp;quot;:&amp;quot;UUhD-1654863793503&amp;quot;,&amp;quot;leaves&amp;quot;:[{&amp;quot;text&amp;quot;:&amp;quot;\&amp;quot;path\&amp;quot;:&amp;nbsp;\&amp;quot;app.&amp;quot;,&amp;quot;marks&amp;quot;:[]},{&amp;quot;text&amp;quot;:&amp;quot;views[2].children[3].children[4]&amp;quot;,&amp;quot;marks&amp;quot;:[{&amp;quot;type&amp;quot;:&amp;quot;color&amp;quot;,&amp;quot;value&amp;quot;:&amp;quot;#403ED6&amp;quot;}]},{&amp;quot;text&amp;quot;:&amp;quot;\&amp;quot;&amp;nbsp;&amp;nbsp;-&gt;&amp;nbsp;{name:&amp;nbsp;\&amp;quot;xxx\&amp;quot;}&amp;quot;,&amp;quot;marks&amp;quot;:[]}]}]},{&amp;quot;type&amp;quot;:&amp;quot;block&amp;quot;,&amp;quot;id&amp;quot;:&amp;quot;3b1M-1654856739055&amp;quot;,&amp;quot;name&amp;quot;:&amp;quot;list-item&amp;quot;,&amp;quot;data&amp;quot;:{&amp;quot;listId&amp;quot;:&amp;quot;kI81-1654856538822&amp;quot;,&amp;quot;listType&amp;quot;:&amp;quot;unordered&amp;quot;,&amp;quot;listLevel&amp;quot;:3,&amp;quot;style&amp;quot;:{},&amp;quot;version&amp;quot;:1},&amp;quot;nodes&amp;quot;:[{&amp;quot;type&amp;quot;:&amp;quot;text&amp;quot;,&amp;quot;id&amp;quot;:&amp;quot;VKd4-1654856739054&amp;quot;,&amp;quot;leaves&amp;quot;:[{&amp;quot;text&amp;quot;:&amp;quot;更新children数组&amp;quot;,&amp;quot;marks&amp;quot;:[{&amp;quot;type&amp;quot;:&amp;quot;bold&amp;quot;}]},{&amp;quot;text&amp;quot;:&amp;quot;（需要同步更新app和当前view结构）&amp;quot;,&amp;quot;marks&amp;quot;:[{&amp;quot;type&amp;quot;:&amp;quot;color&amp;quot;,&amp;quot;value&amp;quot;:&amp;quot;#FF0001&amp;quot;},{&amp;quot;type&amp;quot;:&amp;quot;bold&amp;quot;}]}]}]},{&amp;quot;type&amp;quot;:&amp;quot;block&amp;quot;,&amp;quot;id&amp;quot;:&amp;quot;RbKU-1654856765211&amp;quot;,&amp;quot;name&amp;quot;:&amp;quot;list-item&amp;quot;,&amp;quot;data&amp;quot;:{&amp;quot;listId&amp;quot;:&amp;quot;kI81-1654856538822&amp;quot;,&amp;quot;listType&amp;quot;:&amp;quot;unordered&amp;quot;,&amp;quot;listLevel&amp;quot;:4,&amp;quot;style&amp;quot;:{},&amp;quot;version&amp;quot;:1},&amp;quot;nodes&amp;quot;:[{&amp;quot;type&amp;quot;:&amp;quot;text&amp;quot;,&amp;quot;id&amp;quot;:&amp;quot;aPsD-1654856765210&amp;quot;,&amp;quot;leaves&amp;quot;:[{&amp;quot;text&amp;quot;:&amp;quot;\&amp;quot;path\&amp;quot;:&amp;nbsp;\&amp;quot;app.&amp;quot;,&amp;quot;marks&amp;quot;:[]},{&amp;quot;text&amp;quot;:&amp;quot;views[2].children[3].children[4]&amp;quot;,&amp;quot;marks&amp;quot;:[{&amp;quot;type&amp;quot;:&amp;quot;color&amp;quot;,&amp;quot;value&amp;quot;:&amp;quot;#403ED6&amp;quot;}]},{&amp;quot;text&amp;quot;:&amp;quot;\&amp;quot;&amp;nbsp;&amp;nbsp;&amp;nbsp;&amp;nbsp;-&gt;&amp;nbsp;{children:&amp;nbsp;{[],[],[]}}&amp;quot;,&amp;quot;marks&amp;quot;:[]}]}]},{&amp;quot;type&amp;quot;:&amp;quot;block&amp;quot;,&amp;quot;id&amp;quot;:&amp;quot;EK1r-1654856538842&amp;quot;,&amp;quot;name&amp;quot;:&amp;quot;list-item&amp;quot;,&amp;quot;data&amp;quot;:{&amp;quot;listId&amp;quot;:&amp;quot;kI81-1654856538822&amp;quot;,&amp;quot;listType&amp;quot;:&amp;quot;unordered&amp;quot;,&amp;quot;listLevel&amp;quot;:1,&amp;quot;style&amp;quot;:{},&amp;quot;version&amp;quot;:1},&amp;quot;nodes&amp;quot;:[{&amp;quot;type&amp;quot;:&amp;quot;text&amp;quot;,&amp;quot;id&amp;quot;:&amp;quot;xP80-1654856538843&amp;quot;,&amp;quot;leaves&amp;quot;:[{&amp;quot;text&amp;quot;:&amp;quot;无外部路径&amp;quot;,&amp;quot;marks&amp;quot;:[{&amp;quot;type&amp;quot;:&amp;quot;bold&amp;quot;}]}]}]},{&amp;quot;type&amp;quot;:&amp;quot;block&amp;quot;,&amp;quot;id&amp;quot;:&amp;quot;hNFF-1654863145846&amp;quot;,&amp;quot;name&amp;quot;:&amp;quot;list-item&amp;quot;,&amp;quot;data&amp;quot;:{&amp;quot;listId&amp;quot;:&amp;quot;kI81-1654856538822&amp;quot;,&amp;quot;listType&amp;quot;:&amp;quot;unordered&amp;quot;,&amp;quot;listLevel&amp;quot;:2,&amp;quot;style&amp;quot;:{},&amp;quot;version&amp;quot;:1},&amp;quot;nodes&amp;quot;:[{&amp;quot;type&amp;quot;:&amp;quot;text&amp;quot;,&amp;quot;id&amp;quot;:&amp;quot;z4bF-1654863145845&amp;quot;,&amp;quot;leaves&amp;quot;:[{&amp;quot;text&amp;quot;:&amp;quot;更新普通字段&amp;quot;,&amp;quot;marks&amp;quot;:[{&amp;quot;type&amp;quot;:&amp;quot;bold&amp;quot;}]}]}]},{&amp;quot;type&amp;quot;:&amp;quot;block&amp;quot;,&amp;quot;id&amp;quot;:&amp;quot;wRf0-1654856538844&amp;quot;,&amp;quot;name&amp;quot;:&amp;quot;list-item&amp;quot;,&amp;quot;data&amp;quot;:{&amp;quot;listId&amp;quot;:&amp;quot;kI81-1654856538822&amp;quot;,&amp;quot;listType&amp;quot;:&amp;quot;unordered&amp;quot;,&amp;quot;listLevel&amp;quot;:3,&amp;quot;style&amp;quot;:{},&amp;quot;version&amp;quot;:1},&amp;quot;nodes&amp;quot;:[{&amp;quot;type&amp;quot;:&amp;quot;text&amp;quot;,&amp;quot;id&amp;quot;:&amp;quot;A3T8-1654856538845&amp;quot;,&amp;quot;leaves&amp;quot;:[{&amp;quot;text&amp;quot;:&amp;quot;\&amp;quot;path\&amp;quot;:&amp;nbsp;\&amp;quot;app.processes[2].properties[6]\&amp;quot;&amp;nbsp;-&gt;&amp;nbsp;{type:\&amp;quot;xxx\&amp;quot;}&amp;quot;,&amp;quot;marks&amp;quot;:[]}]}]},{&amp;quot;type&amp;quot;:&amp;quot;block&amp;quot;,&amp;quot;id&amp;quot;:&amp;quot;t1Nf-1654863086277&amp;quot;,&amp;quot;name&amp;quot;:&amp;quot;list-item&amp;quot;,&amp;quot;data&amp;quot;:{&amp;quot;listId&amp;quot;:&amp;quot;kI81-1654856538822&amp;quot;,&amp;quot;listType&amp;quot;:&amp;quot;unordered&amp;quot;,&amp;quot;listLevel&amp;quot;:2,&amp;quot;style&amp;quot;:{},&amp;quot;version&amp;quot;:1},&amp;quot;nodes&amp;quot;:[{&amp;quot;type&amp;quot;:&amp;quot;text&amp;quot;,&amp;quot;id&amp;quot;:&amp;quot;rImM-1654863086276&amp;quot;,&amp;quot;leaves&amp;quot;:[{&amp;quot;text&amp;quot;:&amp;quot;更新views数组&amp;quot;,&amp;quot;marks&amp;quot;:[{&amp;quot;type&amp;quot;:&amp;quot;bold&amp;quot;}]},{&amp;quot;text&amp;quot;:&amp;quot;（需要同步更新app结构）&amp;quot;,&amp;quot;marks&amp;quot;:[{&amp;quot;type&amp;quot;:&amp;quot;bold&amp;quot;},{&amp;quot;type&amp;quot;:&amp;quot;color&amp;quot;,&amp;quot;value&amp;quot;:&amp;quot;#FF0001&amp;quot;}]}]}]},{&amp;quot;type&amp;quot;:&amp;quot;block&amp;quot;,&amp;quot;id&amp;quot;:&amp;quot;dBZi-1654856768395&amp;quot;,&amp;quot;name&amp;quot;:&amp;quot;list-item&amp;quot;,&amp;quot;data&amp;quot;:{&amp;quot;listId&amp;quot;:&amp;quot;f047-1654863086715&amp;quot;,&amp;quot;listType&amp;quot;:&amp;quot;unordered&amp;quot;,&amp;quot;listLevel&amp;quot;:4,&amp;quot;style&amp;quot;:{},&amp;quot;version&amp;quot;:1},&amp;quot;nodes&amp;quot;:[{&amp;quot;type&amp;quot;:&amp;quot;text&amp;quot;,&amp;quot;id&amp;quot;:&amp;quot;30ko-1654856768394&amp;quot;,&amp;quot;leaves&amp;quot;:[{&amp;quot;text&amp;quot;:&amp;quot;\&amp;quot;path\&amp;quot;:&amp;nbsp;\&amp;quot;app\&amp;quot;&amp;nbsp;-&gt;&amp;nbsp;{views:{[],[],[]}}&amp;quot;,&amp;quot;marks&amp;quot;:[]}]}]},{&amp;quot;type&amp;quot;:&amp;quot;block&amp;quot;,&amp;quot;id&amp;quot;:&amp;quot;IdbG-1654856749914&amp;quot;,&amp;quot;name&amp;quot;:&amp;quot;list-item&amp;quot;,&amp;quot;data&amp;quot;:{&amp;quot;listId&amp;quot;:&amp;quot;f047-1654863086715&amp;quot;,&amp;quot;listType&amp;quot;:&amp;quot;unordered&amp;quot;,&amp;quot;listLevel&amp;quot;:2,&amp;quot;style&amp;quot;:{},&amp;quot;version&amp;quot;:1},&amp;quot;nodes&amp;quot;:[{&amp;quot;type&amp;quot;:&amp;quot;text&amp;quot;,&amp;quot;id&amp;quot;:&amp;quot;h0ed-1654856749913&amp;quot;,&amp;quot;leaves&amp;quot;:[{&amp;quot;text&amp;quot;:&amp;quot;更新logics数组&amp;quot;,&amp;quot;marks&amp;quot;:[{&amp;quot;type&amp;quot;:&amp;quot;bold&amp;quot;}]},{&amp;quot;text&amp;quot;:&amp;quot;（需要同步更新app结构）&amp;quot;,&amp;quot;marks&amp;quot;:[{&amp;quot;type&amp;quot;:&amp;quot;bold&amp;quot;},{&amp;quot;type&amp;quot;:&amp;quot;color&amp;quot;,&amp;quot;value&amp;quot;:&amp;quot;#FF0001&amp;quot;}]}]}]},{&amp;quot;type&amp;quot;:&amp;quot;block&amp;quot;,&amp;quot;id&amp;quot;:&amp;quot;g6CB-1654856776840&amp;quot;,&amp;quot;name&amp;quot;:&amp;quot;list-item&amp;quot;,&amp;quot;data&amp;quot;:{&amp;quot;listId&amp;quot;:&amp;quot;f047-1654863086715&amp;quot;,&amp;quot;listType&amp;quot;:&amp;quot;unordered&amp;quot;,&amp;quot;listLevel&amp;quot;:4,&amp;quot;style&amp;quot;:{},&amp;quot;version&amp;quot;:1},&amp;quot;nodes&amp;quot;:[{&amp;quot;type&amp;quot;:&amp;quot;text&amp;quot;,&amp;quot;id&amp;quot;:&amp;quot;2L2A-1654856776839&amp;quot;,&amp;quot;leaves&amp;quot;:[{&amp;quot;text&amp;quot;:&amp;quot;\&amp;quot;path\&amp;quot;:&amp;nbsp;\&amp;quot;app\&amp;quot;&amp;nbsp;-&gt;&amp;nbsp;{logics:{[],[],[]}}&amp;quot;,&amp;quot;marks&amp;quot;:[]}]}]},{&amp;quot;type&amp;quot;:&amp;quot;block&amp;quot;,&amp;quot;id&amp;quot;:&amp;quot;BkHv-1654830389414&amp;quot;,&amp;quot;name&amp;quot;:&amp;quot;paragraph&amp;quot;,&amp;quot;data&amp;quot;:{&amp;quot;style&amp;quot;:{},&amp;quot;version&amp;quot;:1},&amp;quot;nodes&amp;quot;:[{&amp;quot;type&amp;quot;:&amp;quot;text&amp;quot;,&amp;quot;id&amp;quot;:&amp;quot;cZ7a-1654830389415&amp;quot;,&amp;quot;leaves&amp;quot;:[{&amp;quot;text&amp;quot;:&amp;quot;&amp;quot;,&amp;quot;marks&amp;quot;:[]}]}]},{&amp;quot;type&amp;quot;:&amp;quot;block&amp;quot;,&amp;quot;id&amp;quot;:&amp;quot;lI2f-1654827970192&amp;quot;,&amp;quot;name&amp;quot;:&amp;quot;heading&amp;quot;,&amp;quot;data&amp;quot;:{&amp;quot;level&amp;quot;:&amp;quot;h4&amp;quot;,&amp;quot;style&amp;quot;:{&amp;quot;textIndent&amp;quot;:0},&amp;quot;version&amp;quot;:1},&amp;quot;nodes&amp;quot;:[{&amp;quot;type&amp;quot;:&amp;quot;text&amp;quot;,&amp;quot;id&amp;quot;:&amp;quot;oukb-1654827970191&amp;quot;,&amp;quot;leaves&amp;quot;:[{&amp;quot;text&amp;quot;:&amp;quot;Delete&amp;quot;,&amp;quot;marks&amp;quot;:[{&amp;quot;type&amp;quot;:&amp;quot;bold&amp;quot;},{&amp;quot;type&amp;quot;:&amp;quot;fontSize&amp;quot;,&amp;quot;value&amp;quot;:18}]}]}]},{&amp;quot;type&amp;quot;:&amp;quot;block&amp;quot;,&amp;quot;id&amp;quot;:&amp;quot;wFFy-1654863923277&amp;quot;,&amp;quot;name&amp;quot;:&amp;quot;list-item&amp;quot;,&amp;quot;data&amp;quot;:{&amp;quot;listId&amp;quot;:&amp;quot;05Yo-1654863929511&amp;quot;,&amp;quot;listType&amp;quot;:&amp;quot;unordered&amp;quot;,&amp;quot;listLevel&amp;quot;:1,&amp;quot;style&amp;quot;:{},&amp;quot;version&amp;quot;:1},&amp;quot;nodes&amp;quot;:[{&amp;quot;type&amp;quot;:&amp;quot;text&amp;quot;,&amp;quot;id&amp;quot;:&amp;quot;NQ0b-1654863923278&amp;quot;,&amp;quot;leaves&amp;quot;:[{&amp;quot;text&amp;quot;:&amp;quot;存在外部路径&amp;quot;,&amp;quot;marks&amp;quot;:[{&amp;quot;type&amp;quot;:&amp;quot;bold&amp;quot;}]}]}]},{&amp;quot;type&amp;quot;:&amp;quot;block&amp;quot;,&amp;quot;id&amp;quot;:&amp;quot;rHWr-1654864025847&amp;quot;,&amp;quot;name&amp;quot;:&amp;quot;list-item&amp;quot;,&amp;quot;data&amp;quot;:{&amp;quot;listId&amp;quot;:&amp;quot;05Yo-1654863929511&amp;quot;,&amp;quot;listType&amp;quot;:&amp;quot;unordered&amp;quot;,&amp;quot;listLevel&amp;quot;:2,&amp;quot;style&amp;quot;:{},&amp;quot;version&amp;quot;:1},&amp;quot;nodes&amp;quot;:[{&amp;quot;type&amp;quot;:&amp;quot;text&amp;quot;,&amp;quot;id&amp;quot;:&amp;quot;F2PM-1654864025845&amp;quot;,&amp;quot;leaves&amp;quot;:[{&amp;quot;text&amp;quot;:&amp;quot;存在内部路径&amp;quot;,&amp;quot;marks&amp;quot;:[{&amp;quot;type&amp;quot;:&amp;quot;bold&amp;quot;}]}]}]},{&amp;quot;type&amp;quot;:&amp;quot;block&amp;quot;,&amp;quot;id&amp;quot;:&amp;quot;9FTQ-1654864064825&amp;quot;,&amp;quot;name&amp;quot;:&amp;quot;list-item&amp;quot;,&amp;quot;data&amp;quot;:{&amp;quot;listId&amp;quot;:&amp;quot;05Yo-1654863929511&amp;quot;,&amp;quot;listType&amp;quot;:&amp;quot;unordered&amp;quot;,&amp;quot;listLevel&amp;quot;:3,&amp;quot;style&amp;quot;:{},&amp;quot;version&amp;quot;:1},&amp;quot;nodes&amp;quot;:[{&amp;quot;type&amp;quot;:&amp;quot;text&amp;quot;,&amp;quot;id&amp;quot;:&amp;quot;ay0Q-1654864064824&amp;quot;,&amp;quot;leaves&amp;quot;:[{&amp;quot;text&amp;quot;:&amp;quot;\&amp;quot;path\&amp;quot;:&amp;nbsp;\&amp;quot;app&amp;quot;,&amp;quot;marks&amp;quot;:[]},{&amp;quot;text&amp;quot;:&amp;quot;.views[2].children[3].children[4]&amp;quot;,&amp;quot;marks&amp;quot;:[{&amp;quot;type&amp;quot;:&amp;quot;color&amp;quot;,&amp;quot;value&amp;quot;:&amp;quot;#403ED6&amp;quot;}]},{&amp;quot;text&amp;quot;:&amp;quot;.elements[5].properties[6]\&amp;quot;&amp;nbsp;&amp;quot;,&amp;quot;marks&amp;quot;:[]}]}]},{&amp;quot;type&amp;quot;:&amp;quot;block&amp;quot;,&amp;quot;id&amp;quot;:&amp;quot;MCNW-1654864155158&amp;quot;,&amp;quot;name&amp;quot;:&amp;quot;list-item&amp;quot;,&amp;quot;data&amp;quot;:{&amp;quot;listId&amp;quot;:&amp;quot;05Yo-1654863929511&amp;quot;,&amp;quot;listType&amp;quot;:&amp;quot;unordered&amp;quot;,&amp;quot;listLevel&amp;quot;:3,&amp;quot;style&amp;quot;:{},&amp;quot;version&amp;quot;:1},&amp;quot;nodes&amp;quot;:[{&amp;quot;type&amp;quot;:&amp;quot;text&amp;quot;,&amp;quot;id&amp;quot;:&amp;quot;p1pq-1654864155156&amp;quot;,&amp;quot;leaves&amp;quot;:[{&amp;quot;text&amp;quot;:&amp;quot;\&amp;quot;path\&amp;quot;:&amp;nbsp;\&amp;quot;app&amp;quot;,&amp;quot;marks&amp;quot;:[]},{&amp;quot;text&amp;quot;:&amp;quot;.views[2].children[3].children[4]&amp;quot;,&amp;quot;marks&amp;quot;:[{&amp;quot;type&amp;quot;:&amp;quot;color&amp;quot;,&amp;quot;value&amp;quot;:&amp;quot;#403ED6&amp;quot;}]},{&amp;quot;text&amp;quot;:&amp;quot;.type\&amp;quot;&amp;nbsp;&amp;quot;,&amp;quot;marks&amp;quot;:[]}]}]},{&amp;quot;type&amp;quot;:&amp;quot;block&amp;quot;,&amp;quot;id&amp;quot;:&amp;quot;kC0Y-1654864345301&amp;quot;,&amp;quot;name&amp;quot;:&amp;quot;list-item&amp;quot;,&amp;quot;data&amp;quot;:{&amp;quot;listId&amp;quot;:&amp;quot;05Yo-1654863929511&amp;quot;,&amp;quot;listType&amp;quot;:&amp;quot;unordered&amp;quot;,&amp;quot;listLevel&amp;quot;:3,&amp;quot;style&amp;quot;:{},&amp;quot;version&amp;quot;:1},&amp;quot;nodes&amp;quot;:[{&amp;quot;type&amp;quot;:&amp;quot;text&amp;quot;,&amp;quot;id&amp;quot;:&amp;quot;UHCa-1654864345299&amp;quot;,&amp;quot;leaves&amp;quot;:[{&amp;quot;text&amp;quot;:&amp;quot;\&amp;quot;path\&amp;quot;:&amp;nbsp;\&amp;quot;app&amp;quot;,&amp;quot;marks&amp;quot;:[]},{&amp;quot;text&amp;quot;:&amp;quot;.views[2].children[3].children[4]&amp;quot;,&amp;quot;marks&amp;quot;:[{&amp;quot;type&amp;quot;:&amp;quot;color&amp;quot;,&amp;quot;value&amp;quot;:&amp;quot;#403ED6&amp;quot;}]},{&amp;quot;text&amp;quot;:&amp;quot;.name\&amp;quot;&amp;quot;,&amp;quot;marks&amp;quot;:[]},{&amp;quot;text&amp;quot;:&amp;quot;（需要确认需求，是否可能删除name，如果是，也要更新app结构）&amp;nbsp;&amp;quot;,&amp;quot;marks&amp;quot;:[{&amp;quot;type&amp;quot;:&amp;quot;color&amp;quot;,&amp;quot;value&amp;quot;:&amp;quot;#F33232&amp;quot;},{&amp;quot;type&amp;quot;:&amp;quot;bold&amp;quot;}]}]}]},{&amp;quot;type&amp;quot;:&amp;quot;block&amp;quot;,&amp;quot;id&amp;quot;:&amp;quot;AQsf-1654864532478&amp;quot;,&amp;quot;name&amp;quot;:&amp;quot;list-item&amp;quot;,&amp;quot;data&amp;quot;:{&amp;quot;listId&amp;quot;:&amp;quot;05Yo-1654863929511&amp;quot;,&amp;quot;listType&amp;quot;:&amp;quot;unordered&amp;quot;,&amp;quot;listLevel&amp;quot;:3,&amp;quot;style&amp;quot;:{},&amp;quot;version&amp;quot;:1},&amp;quot;nodes&amp;quot;:[{&amp;quot;type&amp;quot;:&amp;quot;text&amp;quot;,&amp;quot;id&amp;quot;:&amp;quot;4CMV-1654864532477&amp;quot;,&amp;quot;leaves&amp;quot;:[{&amp;quot;text&amp;quot;:&amp;quot;\&amp;quot;path\&amp;quot;:&amp;nbsp;\&amp;quot;app&amp;quot;,&amp;quot;marks&amp;quot;:[]},{&amp;quot;text&amp;quot;:&amp;quot;.views[2].&amp;quot;,&amp;quot;marks&amp;quot;:[{&amp;quot;type&amp;quot;:&amp;quot;color&amp;quot;,&amp;quot;value&amp;quot;:&amp;quot;#403ED6&amp;quot;}]},{&amp;quot;text&amp;quot;:&amp;quot;children&amp;quot;,&amp;quot;marks&amp;quot;:[{&amp;quot;type&amp;quot;:&amp;quot;color&amp;quot;,&amp;quot;value&amp;quot;:&amp;quot;#000000&amp;quot;}]},{&amp;quot;text&amp;quot;:&amp;quot;\&amp;quot;&amp;nbsp;&amp;quot;,&amp;quot;marks&amp;quot;:[]},{&amp;quot;text&amp;quot;:&amp;quot;（需要同步更新app结构）&amp;quot;,&amp;quot;marks&amp;quot;:[{&amp;quot;type&amp;quot;:&amp;quot;bold&amp;quot;},{&amp;quot;type&amp;quot;:&amp;quot;color&amp;quot;,&amp;quot;value&amp;quot;:&amp;quot;#FF0001&amp;quot;}]}]}]},{&amp;quot;type&amp;quot;:&amp;quot;block&amp;quot;,&amp;quot;id&amp;quot;:&amp;quot;AWK8-1654864197591&amp;quot;,&amp;quot;name&amp;quot;:&amp;quot;list-item&amp;quot;,&amp;quot;data&amp;quot;:{&amp;quot;listId&amp;quot;:&amp;quot;05Yo-1654863929511&amp;quot;,&amp;quot;listType&amp;quot;:&amp;quot;unordered&amp;quot;,&amp;quot;listLevel&amp;quot;:2,&amp;quot;style&amp;quot;:{},&amp;quot;version&amp;quot;:1},&amp;quot;nodes&amp;quot;:[{&amp;quot;type&amp;quot;:&amp;quot;text&amp;quot;,&amp;quot;id&amp;quot;:&amp;quot;pc5d-1654864197589&amp;quot;,&amp;quot;leaves&amp;quot;:[{&amp;quot;text&amp;quot;:&amp;quot;无内部路径&amp;quot;,&amp;quot;marks&amp;quot;:[{&amp;quot;type&amp;quot;:&amp;quot;bold&amp;quot;}]}]}]},{&amp;quot;type&amp;quot;:&amp;quot;block&amp;quot;,&amp;quot;id&amp;quot;:&amp;quot;yBgJ-1654864273793&amp;quot;,&amp;quot;name&amp;quot;:&amp;quot;list-item&amp;quot;,&amp;quot;data&amp;quot;:{&amp;quot;listId&amp;quot;:&amp;quot;05Yo-1654863929511&amp;quot;,&amp;quot;listType&amp;quot;:&amp;quot;unordered&amp;quot;,&amp;quot;listLevel&amp;quot;:3,&amp;quot;style&amp;quot;:{},&amp;quot;version&amp;quot;:1},&amp;quot;nodes&amp;quot;:[{&amp;quot;type&amp;quot;:&amp;quot;text&amp;quot;,&amp;quot;id&amp;quot;:&amp;quot;5fxa-1654864273791&amp;quot;,&amp;quot;leaves&amp;quot;:[{&amp;quot;text&amp;quot;:&amp;quot;删除view或者logic&amp;quot;,&amp;quot;marks&amp;quot;:[{&amp;quot;type&amp;quot;:&amp;quot;bold&amp;quot;}]}]}]},{&amp;quot;type&amp;quot;:&amp;quot;block&amp;quot;,&amp;quot;id&amp;quot;:&amp;quot;fJzl-1654864205570&amp;quot;,&amp;quot;name&amp;quot;:&amp;quot;list-item&amp;quot;,&amp;quot;data&amp;quot;:{&amp;quot;listId&amp;quot;:&amp;quot;05Yo-1654863929511&amp;quot;,&amp;quot;listType&amp;quot;:&amp;quot;unordered&amp;quot;,&amp;quot;listLevel&amp;quot;:4,&amp;quot;style&amp;quot;:{},&amp;quot;version&amp;quot;:1},&amp;quot;nodes&amp;quot;:[{&amp;quot;type&amp;quot;:&amp;quot;text&amp;quot;,&amp;quot;id&amp;quot;:&amp;quot;7RCU-1654864205569&amp;quot;,&amp;quot;leaves&amp;quot;:[{&amp;quot;text&amp;quot;:&amp;quot;\&amp;quot;path\&amp;quot;:&amp;nbsp;\&amp;quot;app.&amp;quot;,&amp;quot;marks&amp;quot;:[]},{&amp;quot;text&amp;quot;:&amp;quot;views[2].children[3].children[4]&amp;quot;,&amp;quot;marks&amp;quot;:[{&amp;quot;type&amp;quot;:&amp;quot;color&amp;quot;,&amp;quot;value&amp;quot;:&amp;quot;#403ED6&amp;quot;}]},{&amp;quot;text&amp;quot;:&amp;quot;\&amp;quot;&amp;nbsp;&amp;nbsp;&amp;quot;,&amp;quot;marks&amp;quot;:[]},{&amp;quot;text&amp;quot;:&amp;quot;（需要同步更新app结构）&amp;quot;,&amp;quot;marks&amp;quot;:[{&amp;quot;type&amp;quot;:&amp;quot;bold&amp;quot;},{&amp;quot;type&amp;quot;:&amp;quot;color&amp;quot;,&amp;quot;value&amp;quot;:&amp;quot;#FF0001&amp;quot;}]}]}]},{&amp;quot;type&amp;quot;:&amp;quot;block&amp;quot;,&amp;quot;id&amp;quot;:&amp;quot;nDTG-1654864706026&amp;quot;,&amp;quot;name&amp;quot;:&amp;quot;list-item&amp;quot;,&amp;quot;data&amp;quot;:{&amp;quot;listId&amp;quot;:&amp;quot;05Yo-1654863929511&amp;quot;,&amp;quot;listType&amp;quot;:&amp;quot;unordered&amp;quot;,&amp;quot;listLevel&amp;quot;:4,&amp;quot;style&amp;quot;:{},&amp;quot;version&amp;quot;:1},&amp;quot;nodes&amp;quot;:[{&amp;quot;type&amp;quot;:&amp;quot;text&amp;quot;,&amp;quot;id&amp;quot;:&amp;quot;qdFH-1654864706024&amp;quot;,&amp;quot;leaves&amp;quot;:[{&amp;quot;text&amp;quot;:&amp;quot;\&amp;quot;path\&amp;quot;:&amp;nbsp;\&amp;quot;app&amp;quot;,&amp;quot;marks&amp;quot;:[]},{&amp;quot;text&amp;quot;:&amp;quot;.logics[2]&amp;quot;,&amp;quot;marks&amp;quot;:[{&amp;quot;type&amp;quot;:&amp;quot;color&amp;quot;,&amp;quot;value&amp;quot;:&amp;quot;#403ED6&amp;quot;}]},{&amp;quot;text&amp;quot;:&amp;quot;\&amp;quot;&amp;nbsp;&amp;quot;,&amp;quot;marks&amp;quot;:[]},{&amp;quot;text&amp;quot;:&amp;quot;（需要同步更新app结构）&amp;quot;,&amp;quot;marks&amp;quot;:[{&amp;quot;type&amp;quot;:&amp;quot;bold&amp;quot;},{&amp;quot;type&amp;quot;:&amp;quot;color&amp;quot;,&amp;quot;value&amp;quot;:&amp;quot;#FF0001&amp;quot;}]}]}]},{&amp;quot;type&amp;quot;:&amp;quot;block&amp;quot;,&amp;quot;id&amp;quot;:&amp;quot;i1uC-1654864393722&amp;quot;,&amp;quot;name&amp;quot;:&amp;quot;list-item&amp;quot;,&amp;quot;data&amp;quot;:{&amp;quot;listId&amp;quot;:&amp;quot;QNq4-1654864400795&amp;quot;,&amp;quot;listType&amp;quot;:&amp;quot;unordered&amp;quot;,&amp;quot;listLevel&amp;quot;:1,&amp;quot;style&amp;quot;:{},&amp;quot;version&amp;quot;:1},&amp;quot;nodes&amp;quot;:[{&amp;quot;type&amp;quot;:&amp;quot;text&amp;quot;,&amp;quot;id&amp;quot;:&amp;quot;6tW7-1654864393721&amp;quot;,&amp;quot;leaves&amp;quot;:[{&amp;quot;text&amp;quot;:&amp;quot;无外部路径&amp;quot;,&amp;quot;marks&amp;quot;:[{&amp;quot;type&amp;quot;:&amp;quot;bold&amp;quot;}]}]}]},{&amp;quot;type&amp;quot;:&amp;quot;block&amp;quot;,&amp;quot;id&amp;quot;:&amp;quot;2QE4-1654864505540&amp;quot;,&amp;quot;name&amp;quot;:&amp;quot;list-item&amp;quot;,&amp;quot;data&amp;quot;:{&amp;quot;listId&amp;quot;:&amp;quot;QNq4-1654864400795&amp;quot;,&amp;quot;listType&amp;quot;:&amp;quot;unordered&amp;quot;,&amp;quot;listLevel&amp;quot;:2,&amp;quot;style&amp;quot;:{},&amp;quot;version&amp;quot;:1},&amp;quot;nodes&amp;quot;:[{&amp;quot;type&amp;quot;:&amp;quot;text&amp;quot;,&amp;quot;id&amp;quot;:&amp;quot;1XKf-1654864505539&amp;quot;,&amp;quot;leaves&amp;quot;:[{&amp;quot;text&amp;quot;:&amp;quot;\&amp;quot;path&amp;quot;,&amp;quot;marks&amp;quot;:[]},{&amp;quot;text&amp;quot;:&amp;quot;\&amp;quot;:&amp;nbsp;\&amp;quot;app.processes[0]\&amp;quot;&amp;quot;,&amp;quot;marks&amp;quot;:[{&amp;quot;type&amp;quot;:&amp;quot;color&amp;quot;,&amp;quot;value&amp;quot;:&amp;quot;#000000&amp;quot;}]}]}]},{&amp;quot;type&amp;quot;:&amp;quot;block&amp;quot;,&amp;quot;id&amp;quot;:&amp;quot;I8zh-1655177654280&amp;quot;,&amp;quot;name&amp;quot;:&amp;quot;list-item&amp;quot;,&amp;quot;data&amp;quot;:{&amp;quot;listId&amp;quot;:&amp;quot;QNq4-1654864400795&amp;quot;,&amp;quot;listType&amp;quot;:&amp;quot;unordered&amp;quot;,&amp;quot;listLevel&amp;quot;:2,&amp;quot;style&amp;quot;:{},&amp;quot;version&amp;quot;:1},&amp;quot;nodes&amp;quot;:[{&amp;quot;type&amp;quot;:&amp;quot;text&amp;quot;,&amp;quot;id&amp;quot;:&amp;quot;qT4V-1655177654278&amp;quot;,&amp;quot;leaves&amp;quot;:[{&amp;quot;text&amp;quot;:&amp;quot;\&amp;quot;path&amp;quot;,&amp;quot;marks&amp;quot;:[]},{&amp;quot;text&amp;quot;:&amp;quot;\&amp;quot;:&amp;nbsp;\&amp;quot;app.logics\&amp;quot;&amp;quot;,&amp;quot;marks&amp;quot;:[{&amp;quot;type&amp;quot;:&amp;quot;color&amp;quot;,&amp;quot;value&amp;quot;:&amp;quot;#000000&amp;quot;}]},{&amp;quot;text&amp;quot;:&amp;quot;（需要同步更新app结构）&amp;quot;,&amp;quot;marks&amp;quot;:[{&amp;quot;type&amp;quot;:&amp;quot;bold&amp;quot;},{&amp;quot;type&amp;quot;:&amp;quot;color&amp;quot;,&amp;quot;value&amp;quot;:&amp;quot;#FF0001&amp;quot;}]}]}]},{&amp;quot;type&amp;quot;:&amp;quot;block&amp;quot;,&amp;quot;id&amp;quot;:&amp;quot;sKoC-1655177685092&amp;quot;,&amp;quot;name&amp;quot;:&amp;quot;list-item&amp;quot;,&amp;quot;data&amp;quot;:{&amp;quot;listId&amp;quot;:&amp;quot;QNq4-1654864400795&amp;quot;,&amp;quot;listType&amp;quot;:&amp;quot;unordered&amp;quot;,&amp;quot;listLevel&amp;quot;:2,&amp;quot;style&amp;quot;:{},&amp;quot;version&amp;quot;:1},&amp;quot;nodes&amp;quot;:[{&amp;quot;type&amp;quot;:&amp;quot;text&amp;quot;,&amp;quot;id&amp;quot;:&amp;quot;jjp9-1655177685090&amp;quot;,&amp;quot;leaves&amp;quot;:[{&amp;quot;text&amp;quot;:&amp;quot;\&amp;quot;path&amp;quot;,&amp;quot;marks&amp;quot;:[]},{&amp;quot;text&amp;quot;:&amp;quot;\&amp;quot;:&amp;nbsp;\&amp;quot;app.views\&amp;quot;&amp;quot;,&amp;quot;marks&amp;quot;:[{&amp;quot;type&amp;quot;:&amp;quot;color&amp;quot;,&amp;quot;value&amp;quot;:&amp;quot;#000000&amp;quot;}]},{&amp;quot;text&amp;quot;:&amp;quot;（需要同步更新app结构）&amp;quot;,&amp;quot;marks&amp;quot;:[{&amp;quot;type&amp;quot;:&amp;quot;bold&amp;quot;},{&amp;quot;type&amp;quot;:&amp;quot;color&amp;quot;,&amp;quot;value&amp;quot;:&amp;quot;#FF0001&amp;quot;}]}]}]}]&quot;&gt;&lt;div style=&quot;line-height: 1.75; text-align: left; text-indent: 0px; font-size: 11px;&quot; id=&quot;S23M-1660547958891&quot;&gt;&lt;span style=&quot;font-weight: bold; font-size: 11px;&quot;&gt;Create&lt;/span&gt;&lt;span style=&quot;font-size: 11px; font-weight: bold;&quot;&gt;（针对数组，在指定索引后添加、不加索引则默认添加在末尾)&lt;/span&gt;&lt;/div&gt;&lt;div style=&quot;font-size: 11px;&quot;&gt;&lt;ul style=&quot;margin: 0px; font-size: 11px;&quot;&gt;&lt;li style=&quot;line-height: 1.75; text-align: left; list-style-position: inside; word-break: break-word; color: rgb(0, 0, 0); font-weight: bold; font-style: normal; text-decoration: none; background-color: rgba(0, 0, 0, 0); font-family: &amp;quot;Microsoft YaHei&amp;quot;, STXihei; list-style-type: disc; font-size: 11px;&quot;&gt;&lt;span style=&quot;font-weight: bold; font-size: 11px;&quot;&gt;存在外部路径&lt;/span&gt;&lt;/li&gt;&lt;ul style=&quot;margin: 0px; font-size: 11px;&quot;&gt;&lt;li style=&quot;line-height: 1.75; text-align: left; list-style-position: inside; word-break: break-word; color: rgb(0, 0, 0); font-weight: bold; font-style: normal; text-decoration: none; background-color: rgba(0, 0, 0, 0); font-family: &amp;quot;Microsoft YaHei&amp;quot;, STXihei; list-style-type: circle; font-size: 11px;&quot;&gt;&lt;span style=&quot;font-weight: bold; font-size: 11px;&quot;&gt;存在内部路径&lt;/span&gt;&lt;/li&gt;&lt;ul style=&quot;margin: 0px; font-size: 11px;&quot;&gt;&lt;li style=&quot;line-height: 1.75; text-align: left; list-style-position: inside; word-break: break-word; color: rgb(0, 0, 0); font-weight: normal; font-style: normal; text-decoration: none; background-color: rgba(0, 0, 0, 0); font-family: &amp;quot;Microsoft YaHei&amp;quot;, STXihei; list-style-type: square; font-size: 11px;&quot;&gt;&quot;path&quot;: &quot;&lt;span style=&quot;color: rgb(0, 0, 0); font-size: 11px;&quot;&gt;app.&lt;/span&gt;&lt;span style=&quot;color: rgb(64, 62, 214); font-size: 11px;&quot;&gt;views[2].children[3].children[4]&lt;/span&gt;.elements[5].properties[6]&quot;   &lt;/li&gt;&lt;li style=&quot;line-height: 1.75; text-align: left; list-style-position: inside; word-break: break-word; color: rgb(0, 0, 0); font-weight: normal; font-style: normal; text-decoration: none; background-color: rgba(0, 0, 0, 0); font-family: &amp;quot;Microsoft YaHei&amp;quot;, STXihei; list-style-type: square; font-size: 11px;&quot;&gt;&quot;path&quot;: &quot;&lt;span style=&quot;color: rgb(0, 0, 0); font-size: 11px;&quot;&gt;app.&lt;/span&gt;&lt;span style=&quot;color: rgb(64, 62, 214); font-size: 11px;&quot;&gt;views[2].children[3].children[4]&lt;/span&gt;.children&quot;   &lt;span style=&quot;color: rgb(243, 50, 50); font-weight: bold; font-size: 11px;&quot;&gt;（需要同步更新&lt;/span&gt;&lt;span style=&quot;color: rgb(255, 0, 1); font-weight: bold; font-size: 11px;&quot;&gt;app结构）&lt;/span&gt;&lt;/li&gt;&lt;/ul&gt;&lt;li style=&quot;line-height: 1.75; text-align: left; list-style-position: inside; word-break: break-word; color: rgb(0, 0, 0); font-weight: normal; font-style: normal; text-decoration: none; background-color: rgba(0, 0, 0, 0); font-family: &amp;quot;Microsoft YaHei&amp;quot;, STXihei; list-style-type: circle; font-size: 11px;&quot;&gt;&lt;span style=&quot;font-weight: bold; font-size: 11px;&quot;&gt;无内部路径&lt;/span&gt;（对子文档的&lt;span style=&quot;font-weight: bold; font-size: 11px;&quot;&gt;logics数组和views数组create）&lt;/span&gt;&lt;/li&gt;&lt;ul style=&quot;margin: 0px; font-size: 11px;&quot;&gt;&lt;li style=&quot;line-height: 1.75; text-align: left; list-style-position: inside; word-break: break-word; color: rgb(0, 0, 0); font-weight: normal; font-style: normal; text-decoration: none; background-color: rgba(0, 0, 0, 0); font-family: &amp;quot;Microsoft YaHei&amp;quot;, STXihei; list-style-type: square; font-size: 11px;&quot;&gt;&quot;path&quot;: &lt;span style=&quot;color: rgb(0, 0, 0); font-size: 11px;&quot;&gt;&quot;app.&lt;/span&gt;&lt;span style=&quot;color: rgb(64, 62, 214); font-size: 11px;&quot;&gt;views[2].children[3].children[4]&lt;/span&gt;&quot; &lt;span style=&quot;color: rgb(243, 50, 50); font-weight: bold; font-size: 11px;&quot;&gt;（需要同步更新&lt;/span&gt;&lt;span style=&quot;color: rgb(255, 0, 1); font-weight: bold; font-size: 11px;&quot;&gt;app结构）&lt;/span&gt;&lt;/li&gt;&lt;li style=&quot;line-height: 1.75; text-align: left; list-style-position: inside; word-break: break-word; color: rgb(0, 0, 0); font-weight: normal; font-style: normal; text-decoration: none; background-color: rgba(0, 0, 0, 0); font-family: &amp;quot;Microsoft YaHei&amp;quot;, STXihei; list-style-type: square; font-size: 11px;&quot;&gt;&quot;path&quot;: &lt;span style=&quot;color: rgb(0, 0, 0); font-size: 11px;&quot;&gt;&quot;app.&lt;/span&gt;&lt;span style=&quot;color: rgb(64, 62, 214); font-size: 11px;&quot;&gt;views[2]&lt;/span&gt;&quot;&lt;span style=&quot;color: rgb(243, 50, 50); font-weight: bold; font-size: 11px;&quot;&gt;（需要同步更新&lt;/span&gt;&lt;span style=&quot;color: rgb(255, 0, 1); font-weight: bold; font-size: 11px;&quot;&gt;app结构）&lt;/span&gt;&lt;/li&gt;&lt;/ul&gt;&lt;/ul&gt;&lt;li style=&quot;line-height: 1.75; text-align: left; list-style-position: inside; word-break: break-word; color: rgb(0, 0, 0); font-weight: bold; font-style: normal; text-decoration: none; background-color: rgba(0, 0, 0, 0); font-family: &amp;quot;Microsoft YaHei&amp;quot;, STXihei; list-style-type: disc; font-size: 11px;&quot;&gt;&lt;span style=&quot;font-weight: bold; font-size: 11px;&quot;&gt;无外部路径&lt;/span&gt;&lt;/li&gt;&lt;ul style=&quot;margin: 0px; font-size: 11px;&quot;&gt;&lt;li style=&quot;line-height: 1.75; text-align: left; list-style-position: inside; word-break: break-word; color: rgb(0, 0, 0); font-weight: normal; font-style: normal; text-decoration: none; background-color: rgba(0, 0, 0, 0); font-family: &amp;quot;Microsoft YaHei&amp;quot;, STXihei; list-style-type: circle; font-size: 11px;&quot;&gt;&quot;path&quot;: &quot;&lt;span style=&quot;color: rgb(0, 0, 0); font-size: 11px;&quot;&gt;app&lt;/span&gt;.processes[2].properties[6]&quot;&lt;/li&gt;&lt;li style=&quot;line-height: 1.75; text-align: left; list-style-position: inside; word-break: break-word; color: rgb(0, 0, 0); font-weight: normal; font-style: normal; text-decoration: none; background-color: rgba(0, 0, 0, 0); font-family: &amp;quot;Microsoft YaHei&amp;quot;, STXihei; list-style-type: circle; font-size: 11px;&quot;&gt;&quot;path&quot;: &quot;app.views&quot; &lt;/li&gt;&lt;/ul&gt;&lt;/ul&gt;&lt;/div&gt;&lt;div style=&quot;line-height: 1.75; text-align: left; font-size: 11px;&quot;&gt;&lt;/div&gt;&lt;div style=&quot;line-height: 1.75; text-align: left; text-indent: 0px; font-size: 11px;&quot; id=&quot;pB8y-1660547958915&quot;&gt;&lt;span style=&quot;font-weight: bold; font-size: 11px;&quot;&gt;Update&lt;/span&gt;&lt;span style=&quot;font-size: 11px; font-weight: bold;&quot;&gt;（针对对象，根据k修改v）&lt;/span&gt;&lt;/div&gt;&lt;div style=&quot;font-size: 11px;&quot;&gt;&lt;ul style=&quot;margin: 0px; font-size: 11px;&quot;&gt;&lt;li style=&quot;line-height: 1.75; text-align: left; list-style-position: inside; word-break: break-word; color: rgb(0, 0, 0); font-weight: bold; font-style: normal; text-decoration: none; background-color: rgba(0, 0, 0, 0); font-family: &amp;quot;Microsoft YaHei&amp;quot;, STXihei; list-style-type: disc; font-size: 11px;&quot;&gt;&lt;span style=&quot;font-weight: bold; font-size: 11px;&quot;&gt;存在外部路径&lt;/span&gt;&lt;/li&gt;&lt;/ul&gt;&lt;/div&gt;&lt;div style=&quot;font-size: 11px;&quot;&gt;&lt;ul style=&quot;margin: 0px; font-size: 11px;&quot;&gt;&lt;ul style=&quot;margin: 0px; font-size: 11px;&quot;&gt;&lt;li style=&quot;line-height: 1.75; text-align: left; list-style-position: inside; word-break: break-word; color: rgb(0, 0, 0); font-weight: bold; font-style: normal; text-decoration: none; background-color: rgba(0, 0, 0, 0); font-family: &amp;quot;Microsoft YaHei&amp;quot;, STXihei; list-style-type: circle; font-size: 11px;&quot;&gt;&lt;span style=&quot;font-weight: bold; font-size: 11px;&quot;&gt;存在内部路径&lt;/span&gt;&lt;/li&gt;&lt;ul style=&quot;margin: 0px; font-size: 11px;&quot;&gt;&lt;li style=&quot;line-height: 1.75; text-align: left; list-style-position: inside; word-break: break-word; color: rgb(0, 0, 0); font-weight: normal; font-style: normal; text-decoration: none; background-color: rgba(0, 0, 0, 0); font-family: &amp;quot;Microsoft YaHei&amp;quot;, STXihei; list-style-type: square; font-size: 11px;&quot;&gt;&quot;path&quot;: &quot;app&lt;span style=&quot;color: rgb(64, 62, 214); font-size: 11px;&quot;&gt;.views[2].children[3].children[4]&lt;/span&gt;.elements[5].properties[6]&quot;   -&amp;gt; {type:&quot;xxx&quot;}&lt;/li&gt;&lt;/ul&gt;&lt;li style=&quot;line-height: 1.75; text-align: left; list-style-position: inside; word-break: break-word; color: rgb(0, 0, 0); font-weight: bold; font-style: normal; text-decoration: none; background-color: rgba(0, 0, 0, 0); font-family: &amp;quot;Microsoft YaHei&amp;quot;, STXihei; list-style-type: circle; font-size: 11px;&quot;&gt;&lt;span style=&quot;font-weight: bold; font-size: 11px;&quot;&gt;无内部路径&lt;/span&gt;&lt;/li&gt;&lt;ul style=&quot;margin: 0px; font-size: 11px;&quot;&gt;&lt;li style=&quot;line-height: 1.75; text-align: left; list-style-position: inside; word-break: break-word; color: rgb(0, 0, 0); font-weight: bold; font-style: normal; text-decoration: none; background-color: rgba(0, 0, 0, 0); font-family: &amp;quot;Microsoft YaHei&amp;quot;, STXihei; list-style-type: square; font-size: 11px;&quot;&gt;&lt;span style=&quot;font-weight: bold; font-size: 11px;&quot;&gt;更新普通字段&lt;/span&gt;&lt;/li&gt;&lt;ul style=&quot;margin: 0px; font-size: 11px;&quot;&gt;&lt;li style=&quot;line-height: 1.75; text-align: left; list-style-position: inside; word-break: break-word; color: rgb(0, 0, 0); font-weight: normal; font-style: normal; text-decoration: none; background-color: rgba(0, 0, 0, 0); font-family: &amp;quot;Microsoft YaHei&amp;quot;, STXihei; list-style-type: disc; font-size: 11px;&quot;&gt;&quot;path&quot;: &quot;app.&lt;span style=&quot;color: rgb(64, 62, 214); font-size: 11px;&quot;&gt;views[2].children[3].children[4]&lt;/span&gt;&quot;  -&amp;gt; {type: &quot;xxx&quot;}&lt;/li&gt;&lt;/ul&gt;&lt;li style=&quot;line-height: 1.75; text-align: left; list-style-position: inside; word-break: break-word; color: rgb(0, 0, 0); font-weight: bold; font-style: normal; text-decoration: none; background-color: rgba(0, 0, 0, 0); font-family: &amp;quot;Microsoft YaHei&amp;quot;, STXihei; list-style-type: square; font-size: 11px;&quot;&gt;&lt;span style=&quot;font-weight: bold; font-size: 11px;&quot;&gt;更新name字段&lt;/span&gt;&lt;span style=&quot;font-weight: bold; color: rgb(255, 0, 1); font-size: 11px;&quot;&gt;（需要同步更新app结构中对应的name，name保留用于查询）&lt;/span&gt;&lt;/li&gt;&lt;ul style=&quot;margin: 0px; font-size: 11px;&quot;&gt;&lt;li style=&quot;line-height: 1.75; text-align: left; list-style-position: inside; word-break: break-word; color: rgb(0, 0, 0); font-weight: normal; font-style: normal; text-decoration: none; background-color: rgba(0, 0, 0, 0); font-family: &amp;quot;Microsoft YaHei&amp;quot;, STXihei; list-style-type: disc; font-size: 11px;&quot;&gt;&quot;path&quot;: &quot;app.&lt;span style=&quot;color: rgb(64, 62, 214); font-size: 11px;&quot;&gt;views[2].children[3].children[4]&lt;/span&gt;&quot;  -&amp;gt; {name: &quot;xxx&quot;}&lt;/li&gt;&lt;/ul&gt;&lt;li style=&quot;line-height: 1.75; text-align: left; list-style-position: inside; word-break: break-word; color: rgb(0, 0, 0); font-weight: bold; font-style: normal; text-decoration: none; background-color: rgba(0, 0, 0, 0); font-family: &amp;quot;Microsoft YaHei&amp;quot;, STXihei; list-style-type: square; font-size: 11px;&quot;&gt;&lt;span style=&quot;font-weight: bold; font-size: 11px;&quot;&gt;更新children数组&lt;/span&gt;&lt;span style=&quot;color: rgb(255, 0, 1); font-weight: bold; font-size: 11px;&quot;&gt;（需要同步更新app和当前view结构）&lt;/span&gt;&lt;/li&gt;&lt;ul style=&quot;margin: 0px; font-size: 11px;&quot;&gt;&lt;li style=&quot;line-height: 1.75; text-align: left; list-style-position: inside; word-break: break-word; color: rgb(0, 0, 0); font-weight: normal; font-style: normal; text-decoration: none; background-color: rgba(0, 0, 0, 0); font-family: &amp;quot;Microsoft YaHei&amp;quot;, STXihei; list-style-type: disc; font-size: 11px;&quot;&gt;&quot;path&quot;: &quot;app.&lt;span style=&quot;color: rgb(64, 62, 214); font-size: 11px;&quot;&gt;views[2].children[3].children[4]&lt;/span&gt;&quot;    -&amp;gt; {children: {[],[],[]}}&lt;/li&gt;&lt;/ul&gt;&lt;/ul&gt;&lt;/ul&gt;&lt;li style=&quot;line-height: 1.75; text-align: left; list-style-position: inside; word-break: break-word; color: rgb(0, 0, 0); font-weight: bold; font-style: normal; text-decoration: none; background-color: rgba(0, 0, 0, 0); font-family: &amp;quot;Microsoft YaHei&amp;quot;, STXihei; list-style-type: disc; font-size: 11px;&quot;&gt;&lt;span style=&quot;font-weight: bold; font-size: 11px;&quot;&gt;无外部路径&lt;/span&gt;&lt;/li&gt;&lt;ul style=&quot;margin: 0px; font-size: 11px;&quot;&gt;&lt;li style=&quot;line-height: 1.75; text-align: left; list-style-position: inside; word-break: break-word; color: rgb(0, 0, 0); font-weight: bold; font-style: normal; text-decoration: none; background-color: rgba(0, 0, 0, 0); font-family: &amp;quot;Microsoft YaHei&amp;quot;, STXihei; list-style-type: circle; font-size: 11px;&quot;&gt;&lt;span style=&quot;font-weight: bold; font-size: 11px;&quot;&gt;更新普通字段&lt;/span&gt;&lt;/li&gt;&lt;ul style=&quot;margin: 0px; font-size: 11px;&quot;&gt;&lt;li style=&quot;line-height: 1.75; text-align: left; list-style-position: inside; word-break: break-word; color: rgb(0, 0, 0); font-weight: normal; font-style: normal; text-decoration: none; background-color: rgba(0, 0, 0, 0); font-family: &amp;quot;Microsoft YaHei&amp;quot;, STXihei; list-style-type: square; font-size: 11px;&quot;&gt;&quot;path&quot;: &quot;app.processes[2].properties[6]&quot; -&amp;gt; {type:&quot;xxx&quot;}&lt;/li&gt;&lt;/ul&gt;&lt;li style=&quot;line-height: 1.75; text-align: left; list-style-position: inside; word-break: break-word; color: rgb(0, 0, 0); font-weight: bold; font-style: normal; text-decoration: none; background-color: rgba(0, 0, 0, 0); font-family: &amp;quot;Microsoft YaHei&amp;quot;, STXihei; list-style-type: circle; font-size: 11px;&quot;&gt;&lt;span style=&quot;font-weight: bold; font-size: 11px;&quot;&gt;更新views数组&lt;/span&gt;&lt;span style=&quot;font-weight: bold; color: rgb(255, 0, 1); font-size: 11px;&quot;&gt;（需要同步更新app结构）&lt;/span&gt;&lt;/li&gt;&lt;/ul&gt;&lt;/ul&gt;&lt;/div&gt;&lt;div style=&quot;font-size: 11px;&quot;&gt;&lt;ul style=&quot;margin: 0px; font-size: 11px;&quot;&gt;&lt;ul style=&quot;margin: 0px; font-size: 11px;&quot;&gt;&lt;ul style=&quot;margin: 0px; font-size: 11px;&quot;&gt;&lt;ul style=&quot;margin: 0px; font-size: 11px;&quot;&gt;&lt;li style=&quot;line-height: 1.75; text-align: left; list-style-position: inside; word-break: break-word; color: rgb(0, 0, 0); font-weight: normal; font-style: normal; text-decoration: none; background-color: rgba(0, 0, 0, 0); font-family: &amp;quot;Microsoft YaHei&amp;quot;, STXihei; list-style-type: disc; font-size: 11px;&quot;&gt;&quot;path&quot;: &quot;app&quot; -&amp;gt; {views:{[],[],[]}}&lt;/li&gt;&lt;/ul&gt;&lt;/ul&gt;&lt;li style=&quot;line-height: 1.75; text-align: left; list-style-position: inside; word-break: break-word; color: rgb(0, 0, 0); font-weight: bold; font-style: normal; text-decoration: none; background-color: rgba(0, 0, 0, 0); font-family: &amp;quot;Microsoft YaHei&amp;quot;, STXihei; list-style-type: circle; font-size: 11px;&quot;&gt;&lt;span style=&quot;font-weight: bold; font-size: 11px;&quot;&gt;更新logics数组&lt;/span&gt;&lt;span style=&quot;font-weight: bold; color: rgb(255, 0, 1); font-size: 11px;&quot;&gt;（需要同步更新app结构）&lt;/span&gt;&lt;/li&gt;&lt;ul style=&quot;margin: 0px; font-size: 11px;&quot;&gt;&lt;ul style=&quot;margin: 0px; font-size: 11px;&quot;&gt;&lt;li style=&quot;line-height: 1.75; text-align: left; list-style-position: inside; word-break: break-word; color: rgb(0, 0, 0); font-weight: normal; font-style: normal; text-decoration: none; background-color: rgba(0, 0, 0, 0); font-family: &amp;quot;Microsoft YaHei&amp;quot;, STXihei; list-style-type: disc; font-size: 11px;&quot;&gt;&quot;path&quot;: &quot;app&quot; -&amp;gt; {logics:{[],[],[]}}&lt;/li&gt;&lt;/ul&gt;&lt;/ul&gt;&lt;/ul&gt;&lt;/ul&gt;&lt;/div&gt;&lt;div style=&quot;line-height: 1.75; text-align: left; font-size: 11px;&quot;&gt;&lt;/div&gt;&lt;div style=&quot;line-height: 1.75; text-align: left; text-indent: 0px; font-size: 11px;&quot; id=&quot;yJTh-1660547958954&quot;&gt;&lt;span style=&quot;font-weight: bold; font-size: 11px;&quot;&gt;Delete&lt;/span&gt;&lt;/div&gt;&lt;div style=&quot;font-size: 11px;&quot;&gt;&lt;ul style=&quot;margin: 0px; font-size: 11px;&quot;&gt;&lt;li style=&quot;line-height: 1.75; text-align: left; list-style-position: inside; word-break: break-word; color: rgb(0, 0, 0); font-weight: bold; font-style: normal; text-decoration: none; background-color: rgba(0, 0, 0, 0); font-family: &amp;quot;Microsoft YaHei&amp;quot;, STXihei; list-style-type: disc; font-size: 11px;&quot;&gt;&lt;span style=&quot;font-weight: bold; font-size: 11px;&quot;&gt;存在外部路径&lt;/span&gt;&lt;/li&gt;&lt;ul style=&quot;margin: 0px; font-size: 11px;&quot;&gt;&lt;li style=&quot;line-height: 1.75; text-align: left; list-style-position: inside; word-break: break-word; color: rgb(0, 0, 0); font-weight: bold; font-style: normal; text-decoration: none; background-color: rgba(0, 0, 0, 0); font-family: &amp;quot;Microsoft YaHei&amp;quot;, STXihei; list-style-type: circle; font-size: 11px;&quot;&gt;&lt;span style=&quot;font-weight: bold; font-size: 11px;&quot;&gt;存在内部路径&lt;/span&gt;&lt;/li&gt;&lt;ul style=&quot;margin: 0px; font-size: 11px;&quot;&gt;&lt;li style=&quot;line-height: 1.75; text-align: left; list-style-position: inside; word-break: break-word; color: rgb(0, 0, 0); font-weight: normal; font-style: normal; text-decoration: none; background-color: rgba(0, 0, 0, 0); font-family: &amp;quot;Microsoft YaHei&amp;quot;, STXihei; list-style-type: square; font-size: 11px;&quot;&gt;&quot;path&quot;: &quot;app&lt;span style=&quot;color: rgb(64, 62, 214); font-size: 11px;&quot;&gt;.views[2].children[3].children[4]&lt;/span&gt;.elements[5].properties[6]&quot; &lt;/li&gt;&lt;li style=&quot;line-height: 1.75; text-align: left; list-style-position: inside; word-break: break-word; color: rgb(0, 0, 0); font-weight: normal; font-style: normal; text-decoration: none; background-color: rgba(0, 0, 0, 0); font-family: &amp;quot;Microsoft YaHei&amp;quot;, STXihei; list-style-type: square; font-size: 11px;&quot;&gt;&quot;path&quot;: &quot;app&lt;span style=&quot;color: rgb(64, 62, 214); font-size: 11px;&quot;&gt;.views[2].children[3].children[4]&lt;/span&gt;.type&quot; &lt;/li&gt;&lt;li style=&quot;line-height: 1.75; text-align: left; list-style-position: inside; word-break: break-word; color: rgb(0, 0, 0); font-weight: normal; font-style: normal; text-decoration: none; background-color: rgba(0, 0, 0, 0); font-family: &amp;quot;Microsoft YaHei&amp;quot;, STXihei; list-style-type: square; font-size: 11px;&quot;&gt;&quot;path&quot;: &quot;app&lt;span style=&quot;color: rgb(64, 62, 214); font-size: 11px;&quot;&gt;.views[2].children[3].children[4]&lt;/span&gt;.name&quot;&lt;span style=&quot;color: rgb(243, 50, 50); font-weight: bold; font-size: 11px;&quot;&gt;（需要确认需求，是否可能删除name，如果是，也要更新app结构） &lt;/span&gt;&lt;/li&gt;&lt;li style=&quot;line-height: 1.75; text-align: left; list-style-position: inside; word-break: break-word; color: rgb(0, 0, 0); font-weight: normal; font-style: normal; text-decoration: none; background-color: rgba(0, 0, 0, 0); font-family: &amp;quot;Microsoft YaHei&amp;quot;, STXihei; list-style-type: square; font-size: 11px;&quot;&gt;&quot;path&quot;: &quot;app&lt;span style=&quot;color: rgb(64, 62, 214); font-size: 11px;&quot;&gt;.views[2].&lt;/span&gt;&lt;span style=&quot;color: rgb(0, 0, 0); font-size: 11px;&quot;&gt;children&lt;/span&gt;&quot; &lt;span style=&quot;font-weight: bold; color: rgb(255, 0, 1); font-size: 11px;&quot;&gt;（需要同步更新app结构）&lt;/span&gt;&lt;/li&gt;&lt;/ul&gt;&lt;li style=&quot;line-height: 1.75; text-align: left; list-style-position: inside; word-break: break-word; color: rgb(0, 0, 0); font-weight: bold; font-style: normal; text-decoration: none; background-color: rgba(0, 0, 0, 0); font-family: &amp;quot;Microsoft YaHei&amp;quot;, STXihei; list-style-type: circle; font-size: 11px;&quot;&gt;&lt;span style=&quot;font-weight: bold; font-size: 11px;&quot;&gt;无内部路径&lt;/span&gt;&lt;/li&gt;&lt;ul style=&quot;margin: 0px; font-size: 11px;&quot;&gt;&lt;li style=&quot;line-height: 1.75; text-align: left; list-style-position: inside; word-break: break-word; color: rgb(0, 0, 0); font-weight: bold; font-style: normal; text-decoration: none; background-color: rgba(0, 0, 0, 0); font-family: &amp;quot;Microsoft YaHei&amp;quot;, STXihei; list-style-type: square; font-size: 11px;&quot;&gt;&lt;span style=&quot;font-weight: bold; font-size: 11px;&quot;&gt;删除view或者logic&lt;/span&gt;&lt;/li&gt;&lt;ul style=&quot;margin: 0px; font-size: 11px;&quot;&gt;&lt;li style=&quot;line-height: 1.75; text-align: left; list-style-position: inside; word-break: break-word; color: rgb(0, 0, 0); font-weight: normal; font-style: normal; text-decoration: none; background-color: rgba(0, 0, 0, 0); font-family: &amp;quot;Microsoft YaHei&amp;quot;, STXihei; list-style-type: disc; font-size: 11px;&quot;&gt;&quot;path&quot;: &quot;app.&lt;span style=&quot;color: rgb(64, 62, 214); font-size: 11px;&quot;&gt;views[2].children[3].children[4]&lt;/span&gt;&quot;  &lt;span style=&quot;font-weight: bold; color: rgb(255, 0, 1); font-size: 11px;&quot;&gt;（需要同步更新app结构）&lt;/span&gt;&lt;/li&gt;&lt;li style=&quot;line-height: 1.75; text-align: left; list-style-position: inside; word-break: break-word; color: rgb(0, 0, 0); font-weight: normal; font-style: normal; text-decoration: none; background-color: rgba(0, 0, 0, 0); font-family: &amp;quot;Microsoft YaHei&amp;quot;, STXihei; list-style-type: disc; font-size: 11px;&quot;&gt;&quot;path&quot;: &quot;app&lt;span style=&quot;color: rgb(64, 62, 214); font-size: 11px;&quot;&gt;.logics[2]&lt;/span&gt;&quot; &lt;span style=&quot;font-weight: bold; color: rgb(255, 0, 1); font-size: 11px;&quot;&gt;（需要同步更新app结构）&lt;/span&gt;&lt;/li&gt;&lt;/ul&gt;&lt;/ul&gt;&lt;/ul&gt;&lt;/ul&gt;&lt;/div&gt;&lt;div style=&quot;font-size: 11px;&quot;&gt;&lt;ul style=&quot;margin: 0px; font-size: 11px;&quot;&gt;&lt;li style=&quot;line-height: 1.75; text-align: left; list-style-position: inside; word-break: break-word; color: rgb(0, 0, 0); font-weight: bold; font-style: normal; text-decoration: none; background-color: rgba(0, 0, 0, 0); font-family: &amp;quot;Microsoft YaHei&amp;quot;, STXihei; list-style-type: disc; font-size: 11px;&quot;&gt;&lt;span style=&quot;font-weight: bold; font-size: 11px;&quot;&gt;无外部路径&lt;/span&gt;&lt;/li&gt;&lt;ul style=&quot;margin: 0px; font-size: 11px;&quot;&gt;&lt;li style=&quot;line-height: 1.75; text-align: left; list-style-position: inside; word-break: break-word; color: rgb(0, 0, 0); font-weight: normal; font-style: normal; text-decoration: none; background-color: rgba(0, 0, 0, 0); font-family: &amp;quot;Microsoft YaHei&amp;quot;, STXihei; list-style-type: circle; font-size: 11px;&quot;&gt;&quot;path&lt;span style=&quot;color: rgb(0, 0, 0); font-size: 11px;&quot;&gt;&quot;: &quot;app.processes[0]&quot;&lt;/span&gt;&lt;/li&gt;&lt;li style=&quot;line-height: 1.75; text-align: left; list-style-position: inside; word-break: break-word; color: rgb(0, 0, 0); font-weight: normal; font-style: normal; text-decoration: none; background-color: rgba(0, 0, 0, 0); font-family: &amp;quot;Microsoft YaHei&amp;quot;, STXihei; list-style-type: circle; font-size: 11px;&quot;&gt;&quot;path&lt;span style=&quot;color: rgb(0, 0, 0); font-size: 11px;&quot;&gt;&quot;: &quot;app.logics&quot;&lt;/span&gt;&lt;span style=&quot;font-weight: bold; color: rgb(255, 0, 1); font-size: 11px;&quot;&gt;（需要同步更新app结构）&lt;/span&gt;&lt;/li&gt;&lt;li style=&quot;line-height: 1.75; text-align: left; list-style-position: inside; word-break: break-word; color: rgb(0, 0, 0); font-weight: normal; font-style: normal; text-decoration: none; background-color: rgba(0, 0, 0, 0); font-family: &amp;quot;Microsoft YaHei&amp;quot;, STXihei; list-style-type: circle; font-size: 11px;&quot;&gt;&quot;path&lt;span style=&quot;color: rgb(0, 0, 0); font-size: 11px;&quot;&gt;&quot;: &quot;app.views&quot;&lt;/span&gt;&lt;span style=&quot;font-weight: bold; color: rgb(255, 0, 1); font-size: 11px;&quot;&gt;（需要同步更新app结构）&lt;/span&gt;&lt;/li&gt;&lt;/ul&gt;&lt;/ul&gt;&lt;/div&gt;&lt;/article&gt;" style="text;whiteSpace=wrap;html=1;fontSize=15;fontColor=#000000;" vertex="1" parent="1">
          <mxGeometry x="110" y="951" width="626" height="1459.5" as="geometry" />
        </mxCell>
        <mxCell id="cmWsQPbYwqsQAWTUAuRW-14" value="&lt;b&gt;&lt;font style=&quot;font-size: 16px;&quot;&gt;NaslPath路径解析&lt;/font&gt;&lt;/b&gt;" style="text;html=1;strokeColor=none;fillColor=none;align=center;verticalAlign=middle;whiteSpace=wrap;rounded=0;fontSize=11;fontColor=#000000;" vertex="1" parent="1">
          <mxGeometry x="363" y="52" width="140" height="32.5" as="geometry" />
        </mxCell>
        <mxCell id="cmWsQPbYwqsQAWTUAuRW-26" value="&lt;b&gt;&lt;font style=&quot;font-size: 16px;&quot;&gt;Mongo查询适配&lt;/font&gt;&lt;/b&gt;" style="text;html=1;strokeColor=none;fillColor=none;align=center;verticalAlign=middle;whiteSpace=wrap;rounded=0;fontSize=11;fontColor=#000000;" vertex="1" parent="1">
          <mxGeometry x="358" y="241" width="140" height="32.5" as="geometry" />
        </mxCell>
        <mxCell id="cmWsQPbYwqsQAWTUAuRW-31" style="edgeStyle=orthogonalEdgeStyle;rounded=0;orthogonalLoop=1;jettySize=auto;html=1;entryX=0;entryY=0.5;entryDx=0;entryDy=0;fontSize=16;fontColor=#000000;strokeColor=#000000;strokeWidth=1;" edge="1" parent="1" source="cmWsQPbYwqsQAWTUAuRW-28" target="cmWsQPbYwqsQAWTUAuRW-29">
          <mxGeometry relative="1" as="geometry" />
        </mxCell>
        <mxCell id="cmWsQPbYwqsQAWTUAuRW-32" style="edgeStyle=orthogonalEdgeStyle;rounded=0;orthogonalLoop=1;jettySize=auto;html=1;entryX=0;entryY=0.5;entryDx=0;entryDy=0;fontSize=16;fontColor=#000000;strokeColor=#000000;strokeWidth=1;" edge="1" parent="1" target="cmWsQPbYwqsQAWTUAuRW-30">
          <mxGeometry relative="1" as="geometry">
            <mxPoint x="227" y="328" as="sourcePoint" />
            <mxPoint x="285" y="360" as="targetPoint" />
            <Array as="points">
              <mxPoint x="259" y="328" />
              <mxPoint x="259" y="360" />
            </Array>
          </mxGeometry>
        </mxCell>
        <mxCell id="cmWsQPbYwqsQAWTUAuRW-28" value="match" style="rounded=1;whiteSpace=wrap;html=1;fontSize=16;strokeColor=#6c8ebf;fillColor=#dae8fc;" vertex="1" parent="1">
          <mxGeometry x="160" y="312" width="68" height="32" as="geometry" />
        </mxCell>
        <mxCell id="cmWsQPbYwqsQAWTUAuRW-33" style="edgeStyle=orthogonalEdgeStyle;rounded=0;orthogonalLoop=1;jettySize=auto;html=1;fontSize=16;fontColor=#000000;strokeColor=#000000;strokeWidth=1;" edge="1" parent="1" source="cmWsQPbYwqsQAWTUAuRW-29">
          <mxGeometry relative="1" as="geometry">
            <mxPoint x="388.66666666666674" y="293" as="targetPoint" />
          </mxGeometry>
        </mxCell>
        <mxCell id="cmWsQPbYwqsQAWTUAuRW-29" value="slice" style="rounded=1;whiteSpace=wrap;html=1;fontSize=16;strokeColor=#d79b00;fillColor=#ffe6cc;" vertex="1" parent="1">
          <mxGeometry x="290" y="277" width="68" height="32" as="geometry" />
        </mxCell>
        <mxCell id="cmWsQPbYwqsQAWTUAuRW-30" value="unwind" style="rounded=1;whiteSpace=wrap;html=1;fontSize=16;strokeColor=#d79b00;fillColor=#ffe6cc;" vertex="1" parent="1">
          <mxGeometry x="290" y="344" width="68" height="32" as="geometry" />
        </mxCell>
        <mxCell id="cmWsQPbYwqsQAWTUAuRW-35" style="edgeStyle=orthogonalEdgeStyle;rounded=0;orthogonalLoop=1;jettySize=auto;html=1;fontSize=16;fontColor=#000000;strokeColor=#000000;strokeWidth=1;" edge="1" parent="1" source="cmWsQPbYwqsQAWTUAuRW-34">
          <mxGeometry relative="1" as="geometry">
            <mxPoint x="480.3333333333335" y="293" as="targetPoint" />
          </mxGeometry>
        </mxCell>
        <mxCell id="cmWsQPbYwqsQAWTUAuRW-34" value="unwind" style="rounded=1;whiteSpace=wrap;html=1;fontSize=16;strokeColor=#d79b00;fillColor=#ffe6cc;" vertex="1" parent="1">
          <mxGeometry x="389" y="277" width="68" height="32" as="geometry" />
        </mxCell>
        <mxCell id="cmWsQPbYwqsQAWTUAuRW-57" style="edgeStyle=orthogonalEdgeStyle;rounded=0;orthogonalLoop=1;jettySize=auto;html=1;fontSize=11;fontColor=#000000;strokeColor=#000000;strokeWidth=1;" edge="1" parent="1" source="cmWsQPbYwqsQAWTUAuRW-36">
          <mxGeometry relative="1" as="geometry">
            <mxPoint x="633" y="332" as="targetPoint" />
            <Array as="points">
              <mxPoint x="618" y="293" />
              <mxPoint x="618" y="332" />
            </Array>
          </mxGeometry>
        </mxCell>
        <mxCell id="cmWsQPbYwqsQAWTUAuRW-36" value="replaceRoot" style="rounded=1;whiteSpace=wrap;html=1;fontSize=16;strokeColor=#d79b00;fillColor=#ffe6cc;" vertex="1" parent="1">
          <mxGeometry x="481" y="277" width="96" height="32" as="geometry" />
        </mxCell>
        <mxCell id="cmWsQPbYwqsQAWTUAuRW-37" style="edgeStyle=orthogonalEdgeStyle;rounded=0;orthogonalLoop=1;jettySize=auto;html=1;fontSize=16;fontColor=#000000;strokeColor=#000000;strokeWidth=1;" edge="1" parent="1">
          <mxGeometry relative="1" as="geometry">
            <mxPoint x="388.66666666666674" y="360" as="targetPoint" />
            <mxPoint x="358" y="360" as="sourcePoint" />
          </mxGeometry>
        </mxCell>
        <mxCell id="cmWsQPbYwqsQAWTUAuRW-42" style="edgeStyle=orthogonalEdgeStyle;rounded=0;orthogonalLoop=1;jettySize=auto;html=1;fontSize=16;fontColor=#000000;strokeColor=#000000;strokeWidth=1;" edge="1" parent="1" source="cmWsQPbYwqsQAWTUAuRW-39">
          <mxGeometry relative="1" as="geometry">
            <mxPoint x="498.66666666666674" y="360.5" as="targetPoint" />
          </mxGeometry>
        </mxCell>
        <mxCell id="cmWsQPbYwqsQAWTUAuRW-39" value="replaceRoot" style="rounded=1;whiteSpace=wrap;html=1;fontSize=16;strokeColor=#d79b00;fillColor=#ffe6cc;" vertex="1" parent="1">
          <mxGeometry x="389" y="344" width="92" height="33" as="geometry" />
        </mxCell>
        <mxCell id="cmWsQPbYwqsQAWTUAuRW-58" style="edgeStyle=orthogonalEdgeStyle;rounded=0;orthogonalLoop=1;jettySize=auto;html=1;fontSize=11;fontColor=#000000;strokeColor=#000000;strokeWidth=1;" edge="1" parent="1" source="cmWsQPbYwqsQAWTUAuRW-40">
          <mxGeometry relative="1" as="geometry">
            <mxPoint x="638" y="332" as="targetPoint" />
            <Array as="points">
              <mxPoint x="618" y="361" />
              <mxPoint x="618" y="332" />
            </Array>
          </mxGeometry>
        </mxCell>
        <mxCell id="cmWsQPbYwqsQAWTUAuRW-40" value="match" style="rounded=1;whiteSpace=wrap;html=1;fontSize=16;strokeColor=#d79b00;fillColor=#ffe6cc;" vertex="1" parent="1">
          <mxGeometry x="502" y="345" width="78" height="31" as="geometry" />
        </mxCell>
        <mxCell id="cmWsQPbYwqsQAWTUAuRW-61" style="edgeStyle=orthogonalEdgeStyle;rounded=0;orthogonalLoop=1;jettySize=auto;html=1;entryX=0.5;entryY=1;entryDx=0;entryDy=0;fontSize=11;fontColor=#000000;strokeColor=#000000;strokeWidth=1;" edge="1" parent="1" source="cmWsQPbYwqsQAWTUAuRW-43" target="cmWsQPbYwqsQAWTUAuRW-28">
          <mxGeometry relative="1" as="geometry">
            <Array as="points">
              <mxPoint x="687" y="395" />
              <mxPoint x="194" y="395" />
            </Array>
          </mxGeometry>
        </mxCell>
        <mxCell id="cmWsQPbYwqsQAWTUAuRW-65" style="edgeStyle=orthogonalEdgeStyle;rounded=0;orthogonalLoop=1;jettySize=auto;html=1;fontSize=11;fontColor=#000000;strokeColor=#000000;strokeWidth=1;" edge="1" parent="1" source="cmWsQPbYwqsQAWTUAuRW-43">
          <mxGeometry relative="1" as="geometry">
            <mxPoint x="758.3333333333335" y="332.4999999999999" as="targetPoint" />
          </mxGeometry>
        </mxCell>
        <mxCell id="cmWsQPbYwqsQAWTUAuRW-43" value="&lt;font style=&quot;font-size: 11px;&quot;&gt;是否末尾&lt;/font&gt;" style="rhombus;whiteSpace=wrap;html=1;fontSize=16;strokeColor=#6c8ebf;fillColor=#dae8fc;" vertex="1" parent="1">
          <mxGeometry x="637.2" y="307" width="98.8" height="51" as="geometry" />
        </mxCell>
        <mxCell id="cmWsQPbYwqsQAWTUAuRW-53" value="结束" style="ellipse;whiteSpace=wrap;html=1;aspect=fixed;fontSize=11;strokeColor=#b85450;strokeWidth=1;fillColor=#f8cecc;" vertex="1" parent="1">
          <mxGeometry x="758" y="312" width="41" height="41" as="geometry" />
        </mxCell>
        <mxCell id="cmWsQPbYwqsQAWTUAuRW-55" value="&lt;b&gt;&lt;font style=&quot;font-size: 16px;&quot;&gt;Mongo更新适配&lt;/font&gt;&lt;/b&gt;" style="text;html=1;strokeColor=none;fillColor=none;align=center;verticalAlign=middle;whiteSpace=wrap;rounded=0;fontSize=11;fontColor=#000000;" vertex="1" parent="1">
          <mxGeometry x="352" y="430" width="140" height="32.5" as="geometry" />
        </mxCell>
        <mxCell id="cmWsQPbYwqsQAWTUAuRW-56" value="路径拆分" style="rounded=1;whiteSpace=wrap;html=1;fontSize=11;fontColor=#000000;strokeColor=#000000;strokeWidth=1;fillColor=#FFFFFF;" vertex="1" parent="1">
          <mxGeometry x="163" y="505" width="65" height="33" as="geometry" />
        </mxCell>
      </root>
    </mxGraphModel>
  </diagram>
</mxfile>
